<?xml version="1.0" standalone="no"?>
<!DOCTYPE svg PUBLIC "-//W3C//DTD SVG 20010904//EN"
 "http://www.w3.org/TR/2001/REC-SVG-20010904/DTD/svg10.dtd">
<svg version="1.0" xmlns="http://www.w3.org/2000/svg"
 width="2000.000000pt" height="2000.000000pt" viewBox="0 0 2000.000000 2000.000000"
 preserveAspectRatio="xMidYMid meet">

<g transform="translate(0.000000,2000.000000) scale(0.100000,-0.100000)"
fill="#000000" stroke="none">
<path d="M9700 19309 c-507 -10 -685 -25 -1175 -98 -623 -93 -880 -152 -1415
-324 -189 -60 -734 -265 -885 -331 -16 -8 -84 -35 -150 -62 -257 -102 -904
-450 -1320 -707 -168 -105 -723 -522 -945 -711 -250 -214 -603 -548 -805 -762
-128 -136 -432 -506 -545 -663 -25 -33 -79 -106 -121 -160 -234 -304 -606
-922 -852 -1416 -81 -162 -301 -680 -357 -840 -81 -228 -179 -530 -209 -640
-99 -366 -127 -478 -145 -580 -9 -49 -23 -112 -31 -140 -8 -27 -21 -95 -29
-150 -8 -55 -29 -188 -46 -295 -31 -199 -57 -431 -85 -758 -18 -216 -21 -870
-5 -1117 38 -578 128 -1224 225 -1605 8 -30 31 -120 50 -200 68 -273 251 -847
337 -1055 27 -66 78 -190 113 -275 69 -171 96 -229 242 -530 88 -180 187 -370
250 -480 11 -19 36 -62 55 -95 99 -174 359 -576 472 -732 194 -267 527 -669
777 -938 273 -294 540 -537 974 -888 121 -97 247 -200 280 -228 93 -77 452
-315 640 -424 94 -53 187 -108 207 -121 21 -13 40 -24 43 -24 2 0 26 -13 52
-29 275 -167 951 -486 1308 -616 472 -173 866 -297 1015 -320 25 -4 113 -24
195 -45 148 -38 442 -99 665 -139 190 -34 527 -73 785 -91 88 -6 177 -16 199
-22 29 -9 97 -9 290 1 138 6 359 16 491 22 421 17 1031 85 1245 139 41 10 109
23 150 29 146 19 451 86 670 147 147 41 612 194 720 237 41 16 116 44 165 62
50 18 124 48 165 68 41 19 163 74 270 122 203 91 586 279 679 335 30 17 91 50
135 72 191 96 726 447 971 637 94 73 220 170 280 216 114 87 254 208 466 404
68 63 154 136 191 163 36 27 79 69 95 93 16 25 81 100 144 167 250 266 623
709 745 885 26 38 68 95 94 128 59 74 208 301 275 419 28 48 85 146 128 219
85 143 118 203 222 402 37 72 80 153 95 180 56 101 61 111 175 375 70 162 147
350 273 675 189 485 375 1151 457 1640 30 183 72 483 80 585 3 41 16 145 28
230 21 146 22 190 22 770 0 421 -4 651 -12 730 -7 63 -20 185 -28 270 -31 304
-92 699 -141 910 -137 585 -295 1119 -407 1370 -8 19 -25 67 -38 105 -21 67
-293 699 -309 720 -4 6 -54 98 -110 205 -56 107 -117 217 -134 245 -18 27 -68
113 -111 190 -42 77 -90 158 -106 180 -15 22 -78 114 -138 205 -253 378 -566
792 -731 965 -37 39 -91 99 -120 135 -178 218 -679 692 -960 908 -47 36 -125
98 -175 138 -497 394 -1459 961 -1978 1164 -98 39 -126 51 -262 108 -59 24
-155 60 -345 127 -257 90 -699 226 -815 250 -686 142 -928 187 -1140 210 -77
9 -167 20 -200 25 -186 29 -648 40 -1225 29z m870 -169 c209 -11 279 -18 520
-50 85 -11 247 -32 360 -45 270 -32 357 -48 547 -96 87 -22 185 -47 218 -55
77 -19 387 -108 462 -133 32 -10 200 -65 373 -122 268 -87 385 -129 495 -179
11 -5 44 -19 74 -30 29 -11 89 -38 132 -60 44 -22 110 -51 147 -66 138 -54
600 -275 637 -304 6 -4 66 -41 135 -80 258 -150 814 -539 1044 -730 134 -111
214 -172 276 -209 163 -99 617 -545 981 -966 206 -239 325 -399 626 -850 163
-243 226 -349 363 -610 35 -66 71 -131 81 -146 18 -26 120 -231 176 -354 17
-38 57 -126 88 -195 83 -182 174 -411 245 -610 34 -96 75 -212 92 -258 35 -98
40 -115 77 -252 16 -58 54 -196 85 -308 116 -418 173 -721 241 -1277 56 -460
70 -1239 31 -1675 -37 -409 -88 -807 -134 -1045 -24 -122 -106 -488 -128 -570
-52 -198 -114 -406 -179 -599 -93 -282 -131 -381 -292 -771 -103 -248 -413
-880 -508 -1035 -32 -52 -90 -147 -128 -210 -213 -353 -527 -784 -796 -1096
-52 -60 -128 -152 -170 -204 -108 -134 -176 -207 -415 -443 -358 -354 -676
-622 -1139 -963 -247 -182 -501 -343 -802 -509 -77 -43 -162 -92 -190 -110
-120 -78 -513 -272 -660 -325 -27 -10 -106 -42 -175 -70 -69 -29 -173 -71
-231 -95 -124 -51 -638 -224 -859 -289 -158 -46 -388 -102 -540 -131 -289 -54
-371 -67 -605 -94 -143 -16 -300 -33 -350 -36 -49 -4 -97 -13 -105 -20 -20
-17 -295 -32 -815 -46 l-410 -11 -200 26 c-110 14 -276 37 -370 51 -93 14
-242 37 -330 50 -241 36 -503 91 -795 165 -321 81 -827 240 -1070 335 -74 29
-178 70 -230 90 -52 20 -108 43 -125 50 -16 8 -97 44 -180 80 -197 88 -403
191 -545 274 -63 37 -173 100 -245 141 -401 225 -700 432 -1165 805 -158 127
-207 170 -454 399 -395 365 -842 863 -1113 1242 -92 129 -357 525 -428 641
-247 403 -389 678 -635 1228 -185 413 -386 1003 -494 1445 -137 564 -161 709
-206 1220 -33 383 -43 639 -43 1120 0 520 9 674 58 990 20 124 42 274 51 334
25 178 55 319 150 706 127 520 310 1077 456 1388 26 57 48 105 48 107 0 22
296 617 396 795 192 344 497 804 731 1104 270 344 326 413 423 521 158 175
532 541 626 612 44 34 88 72 96 85 16 24 46 39 141 73 42 15 54 26 91 84 47
73 163 193 271 281 95 77 299 210 341 221 19 6 68 42 115 85 93 86 141 119
322 227 375 224 830 461 1185 616 153 67 204 88 487 196 212 81 550 189 815
260 91 25 188 51 215 59 28 8 124 28 215 46 91 17 221 41 290 55 69 13 172 29
230 35 58 7 188 23 290 37 299 40 328 43 485 52 219 12 998 13 1225 1z"/>
<path d="M9670 19039 c-168 -4 -368 -13 -445 -19 -77 -6 -196 -15 -265 -20
-250 -20 -571 -63 -785 -105 -230 -45 -365 -88 -490 -156 -38 -20 -99 -44
-135 -53 -275 -67 -871 -277 -1120 -393 -47 -22 -157 -73 -245 -114 -293 -134
-740 -369 -915 -481 -47 -30 -125 -80 -175 -112 -49 -31 -139 -89 -200 -127
-122 -77 -330 -229 -451 -329 -159 -131 -572 -487 -679 -585 -134 -123 -176
-155 -202 -155 -23 0 -53 -29 -53 -52 0 -23 -44 -83 -130 -178 -42 -47 -101
-116 -132 -155 -30 -38 -89 -107 -130 -152 -147 -160 -370 -447 -533 -688 -49
-71 -125 -184 -170 -250 -219 -321 -534 -928 -746 -1435 -22 -52 -44 -104 -49
-115 -24 -52 -114 -288 -174 -455 -37 -102 -89 -246 -116 -320 -105 -288 -141
-436 -205 -865 -15 -93 -35 -228 -46 -300 -81 -536 -109 -877 -109 -1352 0
-862 87 -1549 305 -2403 52 -205 213 -681 321 -950 310 -772 659 -1418 1060
-1960 314 -424 384 -511 643 -800 196 -218 567 -596 649 -660 83 -65 327 -275
395 -339 31 -30 92 -79 135 -110 42 -30 154 -112 247 -181 196 -146 244 -178
415 -282 283 -170 356 -212 502 -288 102 -53 166 -93 192 -120 44 -46 130 -99
215 -134 31 -13 78 -37 105 -54 28 -18 56 -32 63 -32 6 0 52 -17 100 -39 136
-60 466 -189 577 -226 193 -64 451 -145 506 -159 30 -7 116 -29 190 -49 365
-96 877 -207 957 -207 22 0 62 -6 89 -14 81 -24 414 -64 734 -89 197 -15 931
-14 1150 2 437 31 1010 118 1365 206 244 60 520 134 610 164 174 56 416 141
478 167 34 15 112 44 172 64 117 40 258 99 420 175 249 117 549 267 640 320
55 32 141 80 190 108 231 129 638 401 945 631 246 185 493 394 695 589 67 63
143 133 170 154 28 22 81 75 120 119 38 43 117 129 176 189 190 194 673 808
854 1085 198 301 308 481 400 655 52 98 305 603 305 609 0 2 26 60 59 127 83
176 133 295 211 508 38 102 95 254 128 336 71 180 96 258 161 520 132 530 230
1016 261 1295 67 618 77 1369 25 1920 -44 475 -57 556 -175 1111 -68 321 -210
799 -380 1279 -175 493 -589 1297 -958 1860 -102 156 -162 240 -286 395 -44
55 -114 143 -155 195 -192 241 -356 426 -586 660 -342 347 -463 453 -935 817
-547 421 -1233 820 -1887 1097 -111 47 -205 86 -208 86 -3 0 -50 20 -106 45
-56 25 -192 75 -303 111 -110 36 -241 79 -290 95 -49 16 -123 38 -165 49 -42
10 -157 39 -256 64 -99 25 -256 59 -350 76 -93 17 -215 40 -270 50 -195 37
-472 80 -585 90 -63 5 -162 14 -220 20 -57 5 -208 12 -335 15 -126 3 -286 7
-355 8 -69 2 -262 0 -430 -4z m680 -139 c454 -9 520 -13 655 -34 83 -14 188
-27 235 -31 47 -4 105 -11 130 -17 25 -5 185 -38 355 -73 297 -61 426 -92 655
-157 58 -16 155 -43 215 -59 214 -55 650 -216 970 -357 50 -21 101 -43 115
-47 27 -8 423 -205 529 -262 212 -116 525 -303 680 -406 205 -137 545 -403
901 -706 215 -182 663 -623 810 -796 247 -291 740 -992 960 -1365 143 -242
379 -701 405 -790 4 -14 27 -63 50 -110 23 -47 61 -134 83 -195 22 -60 52
-136 66 -168 37 -83 186 -531 245 -737 78 -274 103 -380 104 -449 l2 -63 -112
1 c-123 2 -157 -7 -214 -56 -69 -61 -92 -63 -121 -13 -17 29 -19 30 -95 31
-43 1 -105 4 -138 8 -52 5 -62 10 -81 38 -12 18 -31 70 -43 115 -38 145 -51
189 -106 353 -30 88 -59 190 -65 227 -12 77 -78 270 -146 426 -27 62 -51 134
-56 172 -16 107 -45 183 -166 430 -63 129 -130 271 -149 315 -19 44 -44 96
-57 115 -13 19 -61 96 -107 170 -126 204 -251 388 -307 454 -28 32 -68 86 -88
120 -21 34 -78 115 -126 181 -83 113 -141 197 -200 290 -20 32 -46 52 -116 89
-141 75 -299 230 -286 280 4 18 -10 39 -68 101 -40 43 -97 96 -128 118 -30 22
-102 86 -160 142 -58 57 -157 144 -220 195 -63 51 -158 131 -210 177 -96 86
-196 146 -406 247 -50 24 -136 78 -190 119 -55 41 -162 109 -239 152 -77 42
-144 81 -150 85 -5 4 -30 19 -55 32 -25 14 -76 43 -115 65 -38 22 -90 50 -115
61 -139 63 -173 77 -260 107 -52 18 -113 36 -135 40 -22 4 -64 18 -93 31 -29
13 -55 24 -57 24 -2 0 -37 16 -77 36 -40 20 -122 56 -183 81 -104 43 -117 46
-235 53 -101 6 -143 14 -220 39 -52 18 -151 41 -220 51 -69 11 -177 29 -240
40 -448 81 -740 123 -935 135 -226 14 -343 27 -393 42 -45 13 -62 14 -104 4
-51 -11 -123 -9 -468 19 -133 11 -336 -1 -425 -24 -103 -27 -253 -46 -440 -56
-201 -10 -389 -26 -480 -40 -73 -12 -155 -13 -155 -2 0 10 82 52 216 108 174
73 275 106 341 112 55 4 68 1 121 -26 33 -17 64 -27 71 -23 20 13 18 87 -4
112 -45 50 -141 63 -245 33 -52 -15 -292 -72 -485 -115 -49 -11 -146 -33 -215
-49 -154 -35 -365 -59 -382 -42 -8 8 -2 16 23 31 46 29 84 39 225 60 130 19
144 24 144 47 0 46 -164 42 -305 -7 -68 -24 -116 -33 -195 -38 -96 -7 -117
-12 -245 -63 -142 -56 -224 -79 -350 -97 -215 -32 -233 -37 -207 -63 17 -17
255 6 402 39 173 38 290 53 290 36 0 -5 -33 -25 -74 -46 -40 -21 -81 -46 -91
-57 -17 -19 -17 -20 0 -26 9 -4 38 -1 64 5 93 25 111 25 133 1 18 -19 27 -21
67 -15 25 3 84 23 131 43 l85 37 150 0 c111 0 157 -4 175 -14 l25 -14 -40 -17
c-38 -16 -125 -37 -310 -76 -174 -36 -518 -144 -1035 -324 -113 -39 -243 -85
-290 -101 -47 -17 -106 -37 -132 -45 -26 -9 -69 -34 -95 -58 -65 -57 -107 -81
-178 -101 -98 -28 -402 -188 -516 -271 -26 -19 -53 -34 -62 -34 -8 0 -45 -25
-83 -55 -37 -30 -118 -82 -179 -116 -60 -34 -132 -79 -160 -99 -27 -20 -75
-54 -105 -75 -126 -87 -267 -204 -377 -314 -125 -124 -358 -334 -402 -363 -33
-22 -59 -23 -83 -1 -12 10 -42 18 -79 21 -71 5 -78 13 -204 197 -83 122 -117
158 -141 148 -16 -6 -19 -50 -5 -86 5 -13 30 -50 56 -81 25 -32 45 -62 43 -67
-5 -14 -117 70 -155 115 -20 25 -38 65 -52 119 -12 45 -35 109 -51 141 l-30
59 25 36 c28 41 140 145 256 239 43 34 104 92 136 128 32 37 87 86 123 109 36
23 94 66 130 97 96 80 368 283 481 358 214 142 248 164 354 227 546 327 949
533 1245 637 107 38 209 77 226 87 49 29 250 105 519 194 299 99 365 118 645
183 371 86 401 93 560 112 85 11 191 26 235 34 44 8 143 20 220 26 77 6 167
16 200 21 33 5 165 14 294 20 129 6 252 14 275 19 23 5 68 7 101 4 33 -2 287
-9 565 -14z m-216 -1034 c80 -14 158 -31 173 -38 17 -8 38 -32 52 -62 22 -45
25 -62 24 -176 0 -116 -2 -130 -28 -188 -28 -62 -28 -63 -16 -160 32 -269 32
-750 0 -827 -9 -21 -13 -97 -14 -250 0 -147 -5 -237 -14 -270 -7 -27 -13 -97
-14 -155 -1 -91 2 -111 21 -147 29 -56 28 -78 -6 -102 -35 -24 -49 -68 -62
-192 -19 -178 -7 -458 21 -510 15 -29 27 -199 18 -259 -8 -54 -27 -465 -31
-694 -2 -86 0 -120 9 -123 7 -3 16 10 20 28 12 46 29 47 37 2 10 -62 6 -332
-6 -413 -14 -96 -14 -114 2 -294 13 -139 16 -151 47 -199 26 -40 33 -62 33
-99 0 -45 2 -49 38 -65 28 -14 37 -24 37 -43 0 -28 3 -28 -150 -16 -151 13
-214 43 -174 83 21 21 2 43 -36 43 -20 0 -64 12 -98 26 -48 21 -88 28 -181 35
-182 13 -192 28 -135 195 27 80 31 104 35 239 5 148 19 261 35 271 28 17 50
-126 69 -443 0 -2 6 -3 14 -3 22 0 23 23 15 250 -4 118 -8 346 -9 505 -1 314
-14 666 -29 757 -5 31 -22 76 -37 100 -27 42 -28 49 -35 228 -4 102 -12 228
-18 280 -7 55 -10 221 -9 395 3 267 1 305 -14 343 -52 123 -51 122 -52 294 -1
91 3 170 7 174 18 18 27 -27 27 -141 0 -135 8 -159 38 -131 44 39 54 -48 61
-498 4 -290 9 -390 18 -393 37 -13 63 249 63 643 0 230 1 245 25 318 22 67 25
94 25 219 0 148 -11 233 -37 299 -18 44 -34 45 -47 2 -20 -68 -20 -68 -38 -51
-33 33 -36 399 -7 707 11 111 10 119 -10 166 -20 45 -22 59 -15 158 5 86 11
113 25 127 11 11 25 19 32 19 7 0 33 10 58 21 24 12 55 25 69 30 14 4 26 8 27
8 0 1 67 -10 147 -23z m-443 -113 c8 -21 7 -45 -5 -98 -20 -87 -20 -190 -1
-319 8 -55 15 -125 15 -157 0 -49 -3 -59 -20 -64 -31 -10 -59 4 -67 33 -8 34
5 514 16 571 13 63 44 80 62 34z m-204 -16 c17 -17 18 -52 16 -530 -1 -282 -7
-696 -13 -922 -5 -225 -15 -684 -20 -1020 -17 -1076 -31 -1668 -40 -1748 -6
-58 -14 -85 -29 -101 -14 -15 -28 -56 -41 -117 -48 -224 -66 -262 -151 -304
-62 -32 -266 -85 -326 -85 -93 0 -140 44 -223 208 -67 131 -405 737 -565 1012
-56 96 -173 308 -260 470 -87 162 -224 412 -305 555 -80 143 -186 332 -235
420 -48 88 -118 214 -155 280 -37 66 -86 154 -108 196 -23 42 -79 144 -125
226 -45 82 -100 190 -120 239 -21 49 -58 116 -82 149 -121 165 -138 196 -143
252 -4 52 -3 55 35 91 62 59 390 211 578 267 50 15 132 40 184 57 52 16 127
33 168 38 95 12 165 30 348 90 236 76 317 100 339 100 12 0 86 16 166 35 139
33 209 46 460 80 63 9 176 28 250 42 212 39 231 42 307 40 54 -2 77 -7 90 -20z
m1389 9 c27 -8 87 -17 134 -21 97 -7 303 -38 400 -60 36 -8 83 -15 105 -15 23
0 58 -9 80 -20 22 -11 52 -20 67 -20 16 0 39 -6 51 -14 12 -8 33 -14 47 -14
14 0 56 -9 94 -21 74 -23 141 -27 152 -10 14 23 94 0 274 -80 102 -46 230 -97
285 -115 55 -18 132 -47 172 -64 39 -18 79 -32 88 -32 8 0 38 -11 65 -25 27
-14 77 -35 112 -49 35 -13 95 -39 133 -59 39 -19 84 -38 102 -42 40 -8 82 -40
94 -73 23 -61 -53 -234 -250 -567 -344 -580 -893 -1522 -1114 -1910 -22 -38
-77 -133 -122 -210 -246 -416 -352 -597 -445 -760 -171 -299 -211 -357 -266
-380 -17 -7 -50 -33 -73 -58 -24 -25 -66 -58 -94 -72 l-52 -27 -85 40 c-109
51 -188 74 -242 70 -46 -3 -50 -11 -33 -66 7 -21 5 -23 -21 -16 -16 4 -43 15
-61 26 -26 16 -33 27 -39 66 -11 76 -10 756 4 2002 24 2097 30 2474 41 2514
16 66 25 69 181 76 76 3 143 9 146 13 10 9 13 9 70 -7z m2855 -677 c134 -39
271 -105 332 -160 62 -54 143 -169 151 -214 9 -47 -8 -106 -39 -135 -24 -23
-35 -70 -15 -70 5 0 20 14 32 31 40 54 105 74 155 46 28 -15 213 -212 213
-226 0 -6 -8 -8 -17 -4 -26 9 45 -64 87 -90 19 -12 49 -35 66 -52 32 -33 122
-81 165 -90 19 -3 28 -13 32 -33 7 -34 61 -79 160 -132 58 -31 80 -50 106 -90
39 -59 83 -105 121 -125 34 -18 309 -303 353 -366 18 -26 47 -57 65 -70 19
-12 47 -42 63 -66 17 -24 41 -51 55 -59 13 -9 46 -47 74 -85 27 -37 85 -105
128 -151 43 -46 97 -111 120 -145 23 -34 65 -88 93 -120 28 -32 56 -69 62 -83
6 -14 23 -41 38 -60 38 -50 79 -127 79 -149 0 -24 -139 -115 -500 -326 -137
-81 -300 -168 -420 -227 -69 -34 -170 -92 -225 -128 -55 -37 -190 -118 -300
-180 -110 -62 -280 -160 -377 -217 -368 -215 -713 -403 -741 -403 -8 0 -72
-37 -143 -81 -345 -218 -422 -263 -474 -281 -30 -10 -109 -45 -175 -78 -66
-32 -172 -82 -235 -110 -63 -29 -128 -58 -145 -66 -53 -24 -208 -80 -283 -104
-109 -33 -139 -30 -180 17 -115 132 -181 199 -235 239 -137 103 -139 91 73
455 62 107 146 253 188 324 70 122 163 266 267 414 24 36 56 94 70 130 63 159
210 402 406 671 83 113 333 507 415 655 28 50 68 128 89 175 110 248 260 501
463 785 56 78 98 130 194 244 65 76 127 164 122 172 -10 16 -24 10 -67 -31
-24 -21 -64 -48 -88 -58 -26 -11 -59 -37 -76 -58 -35 -45 -295 -432 -369 -549
-92 -146 -111 -179 -209 -355 -54 -96 -186 -323 -295 -505 -109 -181 -234
-392 -279 -468 -45 -75 -98 -154 -118 -175 -41 -43 -148 -204 -186 -279 -15
-28 -31 -72 -37 -97 -12 -53 -73 -161 -232 -411 -63 -99 -117 -188 -121 -198
-18 -48 -115 -170 -181 -230 -79 -71 -86 -71 -86 0 0 67 -10 54 -179 -237 -34
-58 -79 -134 -101 -169 -71 -114 -50 -113 65 4 70 70 108 116 112 135 5 30 29
58 39 47 6 -5 -14 -74 -62 -217 -59 -177 -64 -202 -64 -312 0 -86 5 -123 24
-183 40 -126 74 -163 166 -181 19 -3 40 -10 46 -15 6 -5 46 -18 89 -29 145
-37 262 -22 415 55 50 25 114 50 143 56 87 19 135 48 237 143 105 98 220 177
341 233 36 17 160 89 275 161 430 267 632 366 658 323 19 -31 -57 -82 -156
-107 -94 -22 -134 -42 -227 -107 -78 -56 -192 -119 -356 -195 -41 -19 -119
-72 -188 -127 -64 -52 -136 -104 -160 -116 -23 -12 -58 -36 -77 -54 -60 -56
-210 -155 -284 -189 -39 -18 -89 -44 -111 -58 -22 -14 -73 -38 -113 -54 -41
-15 -78 -36 -83 -46 -18 -33 16 -31 92 6 41 20 108 42 149 50 110 21 221 65
447 178 224 111 573 307 625 351 l33 28 -32 -5 c-18 -3 -48 -9 -65 -13 -32 -6
-33 -6 -17 17 18 27 109 77 158 87 33 6 34 5 27 -20 -10 -43 14 -33 77 32 31
33 119 101 194 152 194 129 230 156 299 219 35 32 81 64 110 74 133 51 325
162 552 320 205 144 211 146 324 151 156 6 297 76 460 231 54 51 135 118 181
148 45 31 114 78 152 107 89 65 237 146 294 161 44 11 51 18 146 156 9 12 34
34 56 49 l39 26 36 -19 c48 -26 120 -86 154 -130 16 -19 41 -67 56 -107 15
-40 36 -85 46 -102 10 -16 18 -41 18 -54 0 -13 5 -41 11 -62 25 -82 -59 -208
-152 -228 -27 -6 -88 -31 -136 -56 -96 -49 -119 -54 -138 -28 -11 15 -18 15
-53 5 -61 -18 -181 -103 -240 -169 -29 -32 -68 -74 -86 -94 -41 -44 -153 -102
-190 -97 l-26 3 41 48 c23 26 39 51 36 54 -19 18 -201 -123 -221 -171 -26 -61
-94 -110 -391 -278 -82 -47 -211 -120 -285 -163 -231 -134 -305 -175 -317
-175 -29 0 -133 -55 -208 -109 -116 -84 -164 -113 -415 -252 -272 -151 -283
-156 -315 -139 -46 24 -103 7 -223 -65 -61 -37 -153 -101 -204 -142 -51 -42
-158 -120 -238 -176 -80 -55 -170 -119 -200 -142 -77 -59 -290 -185 -322 -192
-28 -5 -68 -37 -68 -53 0 -5 -24 -37 -54 -70 -64 -71 -91 -123 -117 -223 -24
-94 -24 -148 2 -199 39 -76 176 -204 239 -223 14 -4 45 -27 70 -50 38 -35 58
-45 120 -59 40 -9 99 -19 129 -22 93 -9 100 -12 120 -53 11 -21 27 -41 36 -45
9 -3 175 -3 369 1 249 4 355 3 360 -5 7 -12 -39 -18 -208 -27 -89 -5 -116 -10
-150 -29 -23 -13 -63 -27 -91 -31 -45 -6 -64 -17 -65 -36 0 -13 57 -28 130
-34 41 -4 127 -18 190 -31 77 -17 175 -28 295 -35 99 -5 241 -16 315 -25 154
-16 671 -19 785 -3 39 5 145 13 237 17 93 5 171 11 174 15 12 11 -7 26 -42 33
-19 3 -249 -1 -512 -11 -442 -16 -481 -16 -532 -1 -33 10 -125 20 -230 26
-221 12 -274 18 -384 41 -93 20 -124 35 -107 52 14 14 323 15 491 1 86 -7 206
-8 330 -3 107 4 359 12 560 19 216 6 404 17 461 26 92 14 98 14 147 -5 132
-52 450 -88 672 -77 199 10 278 28 333 73 35 28 79 30 203 6 133 -24 301 -22
394 5 89 26 230 30 270 7 19 -10 46 -13 105 -9 l80 6 41 -35 c108 -94 135
-314 57 -459 -36 -67 -63 -89 -109 -90 -22 0 -203 5 -404 11 -201 6 -504 11
-675 11 -543 2 -854 18 -894 47 -3 2 5 10 17 19 12 8 22 23 22 33 0 15 -11 20
-57 26 -32 4 -103 15 -158 26 -109 21 -349 36 -408 25 -39 -7 -50 -31 -19 -40
9 -3 67 -12 127 -21 61 -8 124 -19 140 -25 17 -5 93 -16 170 -25 76 -9 141
-18 144 -20 2 -3 -9 -10 -25 -16 -71 -29 -537 -19 -699 15 -38 8 -182 19 -320
26 -137 6 -281 18 -320 25 -149 29 -500 57 -580 46 -86 -12 -101 -39 -37 -68
36 -18 28 -18 -358 -21 -217 -1 -441 2 -497 7 -164 15 -236 -13 -324 -125 -50
-63 -52 -64 -99 -64 -57 0 -55 3 -76 -134 -8 -55 -22 -127 -30 -159 l-15 -58
51 -57 c29 -31 60 -73 70 -93 24 -46 71 -86 202 -175 57 -38 154 -105 218
-150 63 -45 156 -102 205 -129 50 -26 134 -76 188 -111 93 -61 164 -96 249
-123 108 -35 307 -159 473 -296 39 -31 97 -71 130 -87 33 -17 98 -54 145 -83
47 -29 110 -65 140 -80 61 -31 130 -82 130 -96 0 -15 -58 -10 -130 12 -83 25
-135 23 -135 -6 0 -31 51 -58 227 -120 191 -67 231 -85 318 -141 36 -23 84
-51 108 -63 l42 -21 0 20 c0 34 25 34 130 0 174 -56 493 -223 610 -320 25 -20
95 -66 155 -102 287 -171 429 -251 500 -283 120 -55 256 -159 275 -211 6 -14
20 -23 44 -27 89 -14 140 -99 141 -232 0 -44 -6 -98 -12 -121 -27 -87 -128
-205 -236 -275 -94 -61 -121 -61 -246 -1 -59 29 -148 122 -160 168 -13 48 -32
67 -84 84 -73 23 -184 111 -218 173 -14 25 11 22 77 -8 50 -23 104 -33 104
-19 0 35 -89 99 -246 177 -204 100 -365 145 -446 124 -53 -13 -78 0 -203 105
-164 138 -278 212 -425 277 -41 18 -97 50 -125 70 -80 61 -152 104 -285 173
-158 81 -293 165 -351 217 l-44 40 37 1 c38 0 249 -58 321 -88 21 -8 82 -53
135 -98 114 -98 256 -177 355 -198 44 -9 79 -24 102 -42 78 -63 98 -74 136
-74 51 0 88 -15 127 -53 36 -35 41 -70 15 -100 -17 -18 -17 -19 2 -33 10 -8
26 -14 34 -14 9 -1 47 -5 85 -10 63 -8 72 -12 115 -54 26 -25 51 -46 57 -46 5
0 18 9 28 21 16 19 24 20 74 14 68 -8 147 -37 196 -70 19 -13 87 -52 150 -86
63 -34 145 -86 182 -115 87 -70 101 -74 132 -39 58 68 -15 150 -150 169 -31 5
-113 40 -231 101 -110 56 -233 110 -307 135 -153 51 -164 57 -248 129 -92 79
-194 146 -328 215 -61 32 -142 81 -180 109 -112 84 -171 120 -329 202 -82 43
-213 119 -290 169 -257 169 -508 307 -803 441 l-62 29 -28 -27 c-15 -15 -36
-27 -46 -27 -20 0 -70 35 -181 126 -161 132 -354 247 -458 273 -42 10 -53 9
-92 -9 -24 -11 -57 -20 -74 -20 -17 0 -52 -7 -78 -16 -40 -14 -56 -14 -101 -4
-46 10 -57 10 -69 -3 -14 -13 -10 -20 28 -62 l43 -46 -65 8 c-95 12 -318 8
-364 -5 -41 -13 -79 -42 -127 -101 -35 -41 -35 -55 1 -336 22 -172 35 -238 59
-300 16 -44 44 -118 62 -165 17 -47 45 -114 62 -150 38 -82 187 -331 233 -390
78 -99 147 -215 253 -420 168 -327 299 -610 353 -761 26 -76 55 -153 63 -173
19 -45 184 -281 247 -353 82 -94 217 -297 294 -442 81 -154 125 -232 251 -452
46 -80 84 -148 84 -152 0 -4 48 -91 106 -194 156 -277 169 -307 169 -378 0
-131 -50 -275 -104 -301 -13 -7 -34 -30 -48 -53 -27 -45 -62 -67 -175 -107
-85 -31 -124 -29 -204 12 -72 36 -127 97 -168 187 -18 39 -47 102 -64 138 -34
70 -50 129 -36 129 5 0 29 -25 53 -56 l43 -55 24 22 c55 52 27 127 -166 444
-106 176 -160 278 -160 306 0 9 9 19 20 22 19 5 19 7 6 44 -8 21 -37 85 -64
143 -28 58 -59 142 -71 187 -25 103 -62 190 -158 373 -113 216 -328 552 -494
771 -48 64 -109 149 -134 188 -53 81 -76 99 -99 75 -19 -19 -19 -14 0 -81 16
-54 13 -76 -6 -57 -12 12 -36 130 -55 276 -16 120 -58 252 -120 378 -80 162
-339 570 -402 635 -16 17 -55 64 -86 106 -35 49 -86 100 -139 142 -46 35 -115
99 -154 140 -146 155 -272 173 -425 61 -34 -26 -86 -60 -113 -76 -64 -37 -128
-99 -169 -162 l-31 -49 -8 -216 c-9 -248 -23 -403 -39 -434 -11 -20 -12 -20
-26 -1 -8 10 -24 37 -35 59 -26 52 -67 95 -90 95 -27 0 -23 -49 11 -135 41
-102 49 -134 61 -259 5 -60 15 -115 21 -123 18 -21 13 -75 -20 -192 -17 -58
-46 -196 -66 -306 -19 -110 -40 -220 -45 -245 -16 -72 -60 -478 -60 -552 0
-65 13 -97 24 -61 9 29 34 189 81 512 24 167 50 309 56 317 31 37 37 11 51
-206 13 -194 13 -298 3 -765 -6 -265 -4 -343 9 -452 13 -104 16 -230 16 -585
0 -422 -5 -535 -30 -663 -16 -79 -22 -431 -12 -655 4 -113 7 -209 5 -215 -2
-5 -21 -22 -42 -37 -34 -24 -97 -42 -191 -53 -14 -1 -38 -8 -54 -14 -20 -8
-38 -9 -55 -2 -14 5 -75 14 -136 20 -96 9 -119 16 -182 48 l-73 37 0 53 c0 42
-4 55 -17 60 -28 10 -29 16 -21 110 3 48 7 133 8 188 2 157 16 157 24 0 15
-306 54 -390 115 -253 16 35 34 86 40 113 17 68 34 92 73 100 18 4 39 12 46
17 15 13 16 124 2 253 -5 50 -14 194 -20 321 -5 127 -15 267 -20 310 -6 43
-13 137 -17 207 -6 121 -5 129 15 157 25 34 28 50 8 50 -15 0 -26 30 -26 77 0
17 -12 53 -26 80 -22 44 -26 69 -34 199 -5 82 -10 397 -10 701 0 519 -1 558
-21 655 -16 82 -19 123 -15 201 9 148 39 182 55 63 9 -69 24 -88 42 -55 l13
24 6 -30 c4 -16 7 -73 8 -125 4 -145 31 -531 42 -590 6 -29 10 -112 10 -184 0
-73 5 -138 11 -146 15 -22 5 629 -15 990 -26 471 -32 533 -63 604 -25 59 -27
70 -32 291 -6 246 -12 275 -61 290 -19 6 -20 14 -20 159 0 169 -10 244 -44
321 -49 108 -144 150 -346 150 -144 0 -197 -17 -215 -71 -5 -16 -20 -43 -32
-58 -31 -39 -29 -62 9 -97 44 -40 122 -68 252 -90 200 -34 191 -7 190 -549 -2
-837 -47 -4016 -60 -4288 -8 -151 -13 -158 -126 -156 -64 2 -99 8 -153 29
-104 40 -194 62 -287 70 -354 29 -429 44 -488 99 -14 13 -43 29 -65 36 -22 7
-78 30 -125 50 -102 46 -151 55 -210 39 -116 -30 -141 -26 -305 48 -55 25
-122 52 -148 60 -27 8 -86 31 -131 50 -58 26 -105 38 -166 45 -99 11 -153 33
-265 109 -44 30 -130 81 -192 112 -117 60 -153 92 -153 137 0 44 29 130 76
224 59 118 108 190 171 254 60 59 65 83 27 123 l-25 26 24 29 c54 65 92 133
212 375 130 259 151 298 354 639 64 107 121 204 127 215 62 114 467 828 502
885 25 41 98 165 162 275 216 369 263 449 348 590 47 77 110 183 140 235 30
52 81 136 112 185 62 97 100 168 100 185 0 37 -97 -25 -167 -107 -26 -31 -71
-81 -99 -112 -80 -87 -201 -266 -251 -371 -63 -135 -91 -187 -133 -250 -21
-30 -54 -98 -75 -150 -40 -101 -120 -230 -249 -400 -149 -196 -164 -225 -252
-465 -47 -130 -92 -224 -144 -300 -15 -22 -38 -63 -51 -90 -13 -28 -63 -119
-111 -204 -48 -85 -88 -156 -88 -157 0 -12 -131 -241 -166 -289 -23 -33 -68
-112 -99 -175 -65 -129 -202 -376 -309 -555 -40 -66 -121 -205 -182 -309 -126
-219 -148 -246 -196 -246 -42 0 -162 69 -241 139 -51 45 -63 51 -103 51 -53 0
-112 22 -121 46 -3 9 1 28 11 43 9 14 69 130 132 256 198 391 263 502 393 673
95 125 186 262 199 302 9 25 9 32 -4 37 -24 9 -63 -26 -137 -123 -38 -49 -75
-92 -82 -97 -29 -16 131 251 169 282 9 7 16 17 16 22 0 16 250 412 292 461 25
30 61 58 93 74 62 29 136 113 210 239 26 44 96 154 155 245 147 226 350 615
350 672 0 22 96 203 153 287 80 120 161 214 210 245 114 73 220 285 281 568 3
14 18 40 32 57 37 45 45 83 29 139 -30 99 -17 119 85 133 44 6 60 14 80 38 27
33 50 34 97 4 17 -11 26 -12 43 -3 29 16 52 9 189 -57 178 -85 255 -116 397
-162 284 -90 519 -130 815 -138 222 -6 357 8 464 47 84 32 185 66 290 100 100
33 175 61 273 106 29 13 58 24 65 24 18 0 152 75 237 133 41 28 117 79 169
114 52 36 112 78 133 95 47 37 265 278 293 324 11 18 65 100 121 181 99 147
195 320 208 377 4 17 23 62 41 102 19 40 41 97 50 126 9 29 30 91 45 139 63
191 88 439 70 702 -34 510 -125 806 -372 1220 -142 239 -267 405 -340 453 -26
16 -82 62 -125 100 -185 166 -347 277 -555 379 -296 145 -293 144 -245 174 76
47 71 81 -13 81 -38 0 -55 6 -79 26 -17 14 -31 29 -31 34 0 4 27 19 60 33 79
35 247 148 350 237 45 39 99 78 119 86 39 16 42 18 162 214 46 74 110 173 144
220 34 47 92 137 130 200 144 241 160 266 192 299 29 28 36 31 49 20 36 -30
-19 -193 -125 -373 -67 -113 -78 -136 -63 -136 26 0 143 183 211 332 17 36 69
182 117 324 91 274 156 427 226 527 48 68 284 353 312 376 31 26 30 1 -2 -65
-48 -98 -40 -126 17 -57 27 32 121 212 164 313 55 129 96 320 68 320 -37 0 -5
84 90 240 87 143 113 201 100 222 -16 26 -14 43 13 96 46 89 104 126 136 87
18 -21 5 -60 -36 -104 -19 -22 -31 -42 -26 -45 10 -6 125 64 181 111 33 27
101 122 101 141 0 5 -19 7 -42 5 -37 -4 -49 0 -82 26 -21 17 -43 31 -49 31
-16 0 -57 42 -57 58 0 16 44 101 174 332 60 108 96 159 139 201 55 54 58 58
65 122 15 118 52 130 233 76z m-7372 -230 c14 -17 39 -43 55 -58 154 -137 202
-206 281 -396 25 -60 57 -125 71 -145 49 -66 92 -135 154 -247 34 -61 87 -143
117 -182 101 -134 143 -219 215 -441 59 -182 70 -201 151 -288 86 -92 141
-172 227 -332 35 -63 82 -144 105 -180 51 -80 172 -287 253 -435 125 -228 150
-286 171 -391 12 -55 32 -139 45 -185 13 -46 43 -154 66 -239 23 -85 51 -167
61 -181 11 -16 45 -37 86 -54 38 -15 76 -34 85 -42 9 -8 29 -48 44 -89 35 -96
49 -108 69 -60 18 43 25 44 52 9 54 -75 56 -199 4 -306 -16 -34 -36 -69 -43
-77 -28 -34 -86 -69 -136 -84 -50 -14 -54 -14 -73 5 -15 15 -18 27 -13 57 5
34 3 38 -24 48 -22 8 -42 34 -82 105 -88 156 -201 334 -277 438 -61 83 -78
115 -107 203 -47 144 -113 271 -319 613 -124 206 -186 288 -331 436 -140 143
-163 174 -199 274 -27 76 -101 262 -122 310 -86 191 -115 245 -136 245 -5 0
-9 -16 -9 -35 0 -19 -4 -35 -9 -35 -17 0 -239 350 -259 409 -7 19 -12 59 -12
91 0 75 -17 166 -41 212 -10 20 -44 65 -74 99 -30 34 -55 67 -55 74 0 7 -25
48 -56 91 -92 128 -148 214 -194 298 -24 44 -76 124 -117 177 -47 62 -71 103
-67 113 5 14 107 76 125 76 20 0 77 -63 131 -144 107 -162 262 -366 279 -366
32 0 -16 100 -126 260 -88 129 -115 191 -115 263 0 47 4 60 29 86 40 43 84 42
120 0z m-662 -421 c27 -31 64 -95 258 -448 153 -278 490 -888 545 -985 12 -22
46 -83 75 -135 29 -52 82 -148 119 -213 36 -65 66 -120 66 -123 0 -6 314 -563
660 -1169 128 -225 259 -455 290 -510 31 -55 89 -156 128 -224 59 -102 72
-132 72 -168 0 -94 -60 -172 -172 -223 -88 -40 -126 -72 -134 -117 -8 -41 -10
-43 -90 -54 -56 -8 -72 -6 -107 9 -86 38 -498 278 -827 482 -74 46 -209 128
-300 182 -91 55 -228 138 -305 185 -77 47 -192 116 -256 154 -64 37 -167 100
-230 139 -228 144 -488 306 -669 416 -190 115 -252 153 -387 238 -130 82 -327
202 -550 337 -116 70 -241 148 -277 173 -37 24 -76 48 -86 51 -30 9 -24 41 10
62 29 16 70 83 70 112 0 21 39 80 95 146 28 33 70 85 92 115 72 97 175 197
224 218 33 15 60 37 92 80 26 33 60 71 77 85 28 24 127 140 178 209 12 17 22
44 22 61 0 23 12 40 57 81 31 28 84 79 117 114 71 74 106 95 141 86 38 -10 72
18 80 65 10 60 43 102 90 116 22 6 61 23 86 38 26 15 53 24 65 21 24 -6 69 25
215 149 133 111 277 210 354 242 74 30 86 31 112 3z m255 -95 c9 -10 24 -36
34 -58 13 -26 28 -41 44 -45 21 -5 26 -14 33 -55 8 -53 1 -135 -12 -135 -16 0
-161 261 -161 291 0 25 41 26 62 2z m-2283 -148 c11 -14 22 -39 26 -54 3 -16
21 -46 39 -67 18 -22 51 -65 73 -97 22 -31 78 -90 124 -131 135 -117 259 -252
259 -279 0 -13 -12 -34 -26 -48 -15 -13 -40 -42 -56 -64 -16 -22 -77 -93 -135
-158 -94 -105 -114 -122 -179 -153 -57 -27 -97 -58 -184 -141 -188 -180 -321
-364 -226 -313 13 7 64 51 113 99 119 116 133 128 133 110 0 -18 -133 -203
-232 -322 -40 -49 -82 -103 -94 -120 -77 -116 -140 -217 -171 -275 -32 -60
-101 -167 -169 -261 -13 -19 -33 -64 -44 -101 -19 -65 -80 -171 -113 -199 -15
-12 -20 -11 -35 3 -40 35 -57 18 -98 -97 -15 -40 -44 -104 -65 -143 -21 -39
-39 -82 -39 -94 0 -22 1 -22 19 -6 10 9 53 70 96 136 43 66 80 118 83 116 15
-16 -30 -121 -102 -238 -45 -73 -100 -166 -122 -205 -21 -40 -42 -73 -46 -73
-23 0 6 135 40 187 13 21 12 25 -9 47 -15 16 -28 46 -35 83 -10 56 -11 57 -22
31 -6 -15 -14 -62 -18 -105 -3 -43 -15 -112 -26 -153 -34 -125 -35 -116 11
-140 37 -18 41 -23 35 -48 -4 -15 -19 -45 -33 -68 -80 -123 -154 -390 -153
-554 0 -97 -11 -130 -44 -130 -16 0 -39 -43 -48 -90 -19 -95 -50 -209 -66
-241 -49 -95 -83 -235 -106 -434 -8 -71 -24 -170 -35 -220 -10 -49 -26 -151
-35 -225 -8 -74 -24 -173 -35 -218 -22 -92 -31 -303 -14 -309 45 -16 53 -56
55 -288 1 -88 6 -221 11 -295 5 -74 14 -331 18 -570 7 -370 12 -455 30 -570
12 -74 31 -191 41 -260 23 -152 31 -179 85 -300 23 -52 59 -162 80 -245 21
-82 60 -211 87 -285 26 -74 48 -138 48 -142 0 -5 27 -75 59 -156 57 -142 77
-187 229 -504 90 -188 100 -218 83 -265 -17 -46 -16 -206 1 -258 9 -29 19 -40
33 -40 17 0 21 8 25 62 7 83 22 98 48 47 11 -22 27 -63 36 -92 10 -28 33 -71
52 -94 19 -23 54 -71 78 -107 23 -36 64 -95 89 -130 49 -65 109 -182 121 -236
13 -53 68 -138 141 -215 39 -41 89 -102 110 -135 56 -84 210 -285 291 -380 38
-44 126 -147 195 -230 69 -82 165 -193 214 -245 48 -52 116 -138 150 -190 54
-83 89 -120 280 -295 250 -229 283 -258 383 -326 42 -29 88 -71 108 -99 37
-51 68 -76 249 -199 127 -85 171 -119 238 -177 26 -24 64 -48 85 -55 20 -6 53
-24 72 -39 112 -86 287 -165 502 -224 32 -9 87 -37 124 -62 37 -25 119 -71
183 -102 64 -32 197 -99 296 -149 149 -77 201 -98 300 -123 180 -46 268 -76
341 -117 36 -20 87 -40 112 -44 52 -10 184 -74 209 -101 15 -17 15 -25 -12
-119 -17 -63 -40 -119 -60 -148 -70 -101 -138 -271 -150 -377 -4 -32 -12 -67
-17 -78 -18 -33 -110 -16 -359 67 -285 95 -291 96 -369 107 -46 6 -91 22 -160
58 -52 28 -140 70 -196 95 -187 84 -668 323 -835 414 -359 197 -581 337 -829
521 -635 472 -1002 809 -1550 1427 -159 179 -275 323 -458 568 -198 263 -254
348 -483 737 -74 125 -236 427 -303 565 -130 266 -342 761 -437 1019 -39 106
-55 218 -38 269 12 36 10 47 -24 150 -20 62 -48 159 -62 217 -33 131 -74 267
-91 302 -35 69 -78 280 -134 653 -15 105 -40 255 -54 335 -66 382 -89 823 -60
1167 4 50 1 90 -10 135 -23 91 -21 132 20 365 51 288 52 301 53 366 1 32 10
104 22 159 21 100 21 173 3 296 -6 43 -3 66 62 397 84 425 222 884 321 1060
61 111 111 219 141 310 48 144 99 268 187 455 93 199 110 245 120 315 10 76
36 133 107 241 36 55 129 212 208 349 78 138 158 275 178 305 117 182 289 433
332 484 27 32 72 96 99 140 28 45 60 91 72 102 12 10 87 97 166 192 312 372
412 452 472 377z m2591 -171 c72 -110 67 -178 -7 -101 -57 58 -96 177 -58 177
9 0 38 -34 65 -76z m6470 -701 c-1 -48 -56 -153 -82 -153 -15 0 -8 50 13 93
46 90 69 110 69 60z m-2952 -915 c27 -284 27 -287 -3 -357 -25 -61 -26 -69
-15 -120 13 -63 19 -245 8 -256 -4 -5 -15 -2 -24 6 -15 12 -16 51 -11 409 5
371 9 440 27 440 3 0 12 -55 18 -122z m-2396 -275 c31 -32 79 -96 106 -143 45
-79 244 -407 341 -563 23 -37 44 -81 48 -97 5 -26 3 -30 -16 -30 -27 0 -71 22
-92 46 -9 11 -63 105 -119 209 -56 105 -145 261 -197 347 -121 203 -161 288
-135 288 4 0 33 -26 64 -57z m-3588 11 c63 -31 326 -206 350 -233 19 -21 14
-41 -10 -41 -30 0 -93 40 -130 83 -22 25 -68 61 -103 81 -61 36 -181 122 -181
132 0 10 25 2 74 -22z m-341 -61 c14 -14 21 -14 41 -3 45 23 100 -9 150 -88
17 -27 61 -65 138 -117 62 -42 145 -99 183 -126 39 -28 165 -107 280 -176 116
-70 269 -162 340 -206 72 -43 180 -106 240 -140 61 -33 133 -75 160 -92 87
-55 217 -122 381 -198 87 -40 204 -102 259 -137 153 -97 264 -160 320 -181 27
-10 93 -53 145 -94 52 -42 131 -97 175 -122 108 -63 299 -191 415 -278 137
-102 273 -191 354 -232 57 -29 84 -36 136 -38 58 -1 74 -7 145 -48 44 -25 92
-49 106 -52 38 -9 84 -49 74 -65 -5 -9 -25 -11 -67 -7 -69 6 -77 -13 -11 -26
52 -10 133 -79 133 -112 0 -13 -19 -60 -42 -105 -43 -84 -107 -152 -181 -192
-42 -24 -114 -23 -177 2 -66 26 -407 251 -486 321 -139 123 -189 160 -286 212
-36 20 -108 65 -160 100 -120 83 -173 109 -311 153 -61 20 -155 58 -207 84
-103 51 -580 329 -672 391 -62 43 -103 88 -90 101 5 5 94 4 198 0 223 -11 223
-10 405 -134 82 -56 163 -100 239 -132 198 -83 245 -111 336 -198 46 -45 87
-78 91 -74 4 3 -3 26 -15 50 -27 57 -198 187 -332 253 -163 81 -291 154 -385
218 -49 34 -106 68 -125 74 -19 7 -109 16 -200 21 -91 4 -177 12 -192 18 -14
6 -63 38 -109 71 -105 77 -111 78 -84 14 19 -44 19 -43 -2 -43 -40 0 -366 204
-466 292 -43 38 -49 40 -71 29 -32 -18 -53 -9 -145 59 -100 74 -131 90 -176
90 -46 0 -66 11 -140 75 -97 84 -157 123 -246 159 -140 57 -344 177 -374 219
-25 36 -19 116 15 184 34 68 53 87 118 123 34 18 48 32 50 50 6 54 13 71 35
79 24 9 63 -2 90 -26z m3784 -126 c12 -17 44 -77 72 -132 83 -166 82 -213 -2
-67 -46 79 -117 217 -117 227 0 17 28 0 47 -28z m8773 15 c0 -25 -143 -122
-179 -122 -25 0 7 34 76 80 70 47 103 60 103 42z m-11398 -466 c206 -75 275
-118 418 -257 66 -65 81 -84 67 -87 -26 -5 -109 32 -199 90 -43 28 -104 60
-136 71 -105 40 -341 185 -350 216 -7 23 93 6 200 -33z m-1424 -20 c48 -29
125 -68 172 -87 84 -33 233 -119 440 -253 58 -37 186 -116 285 -175 99 -59
223 -134 275 -168 52 -34 277 -171 500 -304 641 -384 699 -419 810 -487 58
-35 179 -107 270 -159 91 -53 221 -130 290 -173 69 -43 163 -100 210 -127 312
-184 503 -300 525 -320 14 -13 28 -36 31 -51 4 -15 20 -58 38 -97 28 -64 31
-79 31 -180 0 -120 -15 -166 -73 -228 -42 -45 -190 -127 -252 -140 -64 -14
-242 -14 -1450 2 -459 6 -927 16 -1040 21 -113 5 -567 14 -1010 20 -802 10
-965 18 -1007 46 -35 22 -37 56 -14 171 12 59 26 154 32 212 6 58 29 192 50
296 22 105 53 271 70 370 16 99 43 230 59 290 16 61 37 144 48 185 11 41 31
109 46 150 14 41 50 154 81 250 89 277 130 383 226 574 159 316 219 416 250
416 10 0 59 -24 107 -54z m5180 -28 c74 -116 124 -213 126 -243 1 -27 -2 -30
-31 -33 -23 -2 -39 4 -62 25 -27 24 -36 46 -61 148 -45 184 -39 207 28 103z
m8571 43 c16 -16 18 -29 14 -78 -5 -56 1 -82 57 -263 4 -14 19 -49 34 -79 50
-98 187 -482 296 -827 67 -214 86 -291 115 -464 14 -80 34 -185 45 -235 11
-49 33 -187 50 -305 16 -118 34 -243 39 -277 17 -114 33 -436 24 -477 -7 -32
-14 -41 -38 -48 -17 -4 -129 -6 -250 -4 -121 2 -776 9 -1455 15 -2100 18
-2263 20 -2340 31 -68 9 -276 64 -405 107 -119 39 -205 100 -250 177 -13 23
-40 84 -59 136 -18 52 -44 116 -56 141 -28 57 -22 89 23 123 17 13 120 75 227
137 216 124 523 307 585 349 22 15 99 57 170 92 72 36 155 80 185 98 30 18
148 84 262 146 114 63 261 150 327 193 65 44 181 115 257 157 77 42 186 104
244 137 239 137 388 220 464 258 130 66 207 109 271 154 95 67 260 167 380
230 126 67 424 244 535 318 41 28 91 56 110 63 54 20 117 17 139 -5z m-9216
-391 c41 -45 70 -97 86 -156 7 -24 22 -48 40 -62 36 -26 125 -159 179 -267 46
-91 58 -130 44 -139 -14 -9 -41 20 -49 52 -3 15 -23 47 -43 72 -44 54 -127
185 -165 260 -15 30 -38 69 -50 85 -13 17 -36 57 -53 90 -55 112 -52 135 11
65z m1874 -7 c8 -21 -19 -125 -34 -130 -25 -8 -36 104 -13 132 16 20 39 19 47
-2z m-1496 -270 c86 -99 178 -276 179 -345 0 -75 -43 -52 -75 40 -9 26 -45
103 -80 172 -68 135 -82 170 -67 170 6 0 25 -17 43 -37z m1761 -100 c25 -22
40 -70 23 -77 -17 -6 -72 9 -91 25 -18 15 -18 44 1 63 17 16 39 12 67 -11z
m-862 -108 c10 -12 6 -20 -21 -45 -65 -59 -130 -75 -153 -37 -9 16 -5 24 28
52 21 19 48 36 60 38 45 9 74 6 86 -8z m1363 -66 c69 -13 147 -49 147 -66 0
-17 5 -18 -179 21 -128 27 -141 31 -141 46 0 20 68 20 173 -1z m-596 -6 c7
-20 -32 -32 -120 -39 -102 -8 -121 6 -39 29 97 28 152 32 159 10z m379 -152
c38 -17 67 -21 158 -21 171 0 302 -27 510 -106 216 -83 368 -172 609 -357 162
-125 251 -209 352 -331 329 -401 506 -846 545 -1365 9 -130 0 -405 -15 -461
-3 -8 -11 -84 -20 -168 -16 -163 -28 -207 -110 -417 -47 -121 -101 -224 -203
-390 -101 -164 -166 -237 -371 -421 -79 -71 -167 -150 -195 -175 -179 -162
-528 -336 -869 -433 -49 -14 -92 -28 -95 -30 -20 -12 -256 -47 -387 -57 -292
-21 -630 24 -903 122 -225 81 -476 214 -657 349 -102 76 -309 262 -372 334
-55 63 -228 319 -288 426 -358 646 -380 1541 -55 2190 119 237 255 433 420
603 271 281 589 479 995 620 151 52 294 83 455 97 63 5 133 12 155 14 22 2 97
3 167 1 102 -3 136 -8 174 -24z m1891 -157 c43 -46 52 -67 34 -79 -22 -13
-122 101 -104 119 13 13 28 4 70 -40z m6355 -229 c160 -19 208 -124 258 -565
11 -102 29 -257 40 -345 37 -310 45 -477 44 -985 0 -418 -3 -511 -17 -600 -16
-95 -28 -132 -42 -119 -15 15 -26 239 -29 569 -2 239 -8 390 -15 417 -13 46
-55 103 -77 103 -18 0 -18 -13 1 -75 11 -34 19 -131 26 -305 5 -140 14 -311
18 -380 5 -74 4 -190 -2 -284 -11 -174 -14 -165 49 -202 16 -10 19 -27 22
-122 8 -238 -110 -864 -249 -1329 -160 -537 -258 -821 -381 -1108 -107 -248
-138 -311 -173 -354 -15 -17 -46 -68 -69 -114 -50 -97 -178 -296 -182 -282 -1
6 -5 27 -9 48 -4 28 -11 37 -26 37 -25 0 -50 -41 -95 -160 -68 -177 -126 -276
-248 -425 -122 -149 -144 -180 -132 -192 12 -12 158 147 256 280 182 246 210
275 196 205 -25 -130 -540 -923 -806 -1243 -36 -44 -84 -102 -106 -130 -419
-533 -1126 -1200 -1687 -1592 -215 -150 -627 -405 -852 -528 -500 -272 -734
-383 -1090 -515 -467 -174 -1024 -336 -1430 -415 -608 -118 -1263 -174 -1890
-162 -427 9 -737 33 -1025 81 -47 8 -141 23 -210 34 -420 69 -622 112 -700
150 -42 20 -50 52 -20 82 27 27 37 56 50 138 5 37 12 81 15 99 3 18 21 50 40
73 47 57 61 102 45 151 -12 36 -12 41 9 63 13 14 25 43 29 72 l7 49 59 3 c37
2 113 -8 205 -27 167 -34 254 -47 361 -56 142 -12 365 -69 428 -109 32 -20 55
-25 161 -30 68 -4 144 -11 170 -16 25 -5 128 -17 228 -25 100 -8 189 -18 198
-21 11 -5 18 0 22 16 6 22 7 22 137 15 100 -5 152 -3 221 9 106 19 395 22 491
5 51 -9 75 -8 126 4 35 9 128 21 208 27 133 10 176 18 310 55 27 8 72 11 113
7 68 -5 69 -5 129 38 51 35 72 44 132 51 177 23 225 32 291 51 94 27 123 43
171 94 28 31 48 44 67 44 37 0 34 -15 -8 -42 -19 -13 -33 -27 -31 -33 4 -15
63 -7 231 30 191 43 224 55 296 109 43 32 84 52 147 71 48 14 110 33 137 41
90 28 213 91 319 164 92 64 111 73 168 80 34 4 88 18 118 30 73 29 254 124
365 192 50 30 142 87 206 126 136 83 197 109 302 128 90 16 121 30 202 94 33
26 132 95 219 154 88 59 182 127 210 150 28 24 79 62 113 85 34 22 70 53 80
68 24 36 171 184 310 311 66 61 129 129 156 169 47 72 211 257 388 438 152
156 229 250 337 410 51 77 111 165 132 195 21 30 92 156 158 280 65 124 157
293 202 375 115 209 170 324 170 356 0 18 21 59 57 111 31 46 73 119 93 163
42 89 210 545 260 703 29 91 64 169 155 340 21 40 30 74 36 140 9 102 20 139
66 208 22 33 41 82 56 146 29 116 54 163 88 163 21 0 24 -5 27 -37 2 -21 7
-38 11 -38 11 0 56 190 80 335 11 66 27 161 36 210 19 116 55 427 55 484 0 38
-5 48 -35 75 l-35 31 30 185 c16 102 29 208 29 235 l-1 50 -21 -48 c-25 -56
-43 -56 -40 1 2 53 28 102 54 102 14 0 25 12 37 38 13 30 17 76 18 252 1 118
9 296 17 395 l14 180 -30 33 c-50 53 -57 48 -76 -63 -6 -32 -15 -63 -20 -68
-28 -28 -45 39 -66 258 -10 96 -27 200 -50 289 -36 141 -37 180 -7 174 24 -4
62 -85 62 -131 0 -135 211 -276 290 -193 33 36 21 56 -35 56 -84 0 -155 45
-155 99 0 33 14 41 68 41 56 0 100 29 136 89 17 30 39 59 49 65 26 17 71 -12
77 -49 4 -23 11 -31 31 -33 22 -3 28 -10 35 -44 12 -55 28 -58 48 -8 21 54 20
127 -3 197 -11 32 -22 72 -26 89 -10 51 -61 91 -145 114 -89 23 -127 24 -198
6 -63 -17 -124 -52 -175 -100 -42 -40 -87 -49 -87 -18 0 10 -13 31 -30 47 -43
41 -71 124 -77 225 -2 47 -1 90 4 96 10 13 137 74 155 74 8 0 23 -7 36 -15 34
-24 85 -9 174 51 77 53 129 75 158 69 8 -2 40 -7 72 -10z m-10202 -17 c0 -38
-107 -145 -172 -173 -18 -7 -41 -23 -50 -34 l-18 -21 -36 25 c-20 14 -42 25
-49 25 -13 0 -41 28 -34 34 2 3 42 10 89 16 94 13 106 19 186 91 53 48 84 62
84 37z m-713 -80 c48 -29 70 -54 59 -65 -18 -19 -156 54 -156 82 0 24 40 18
97 -17z m340 -356 c-72 -99 -93 -110 -102 -59 -11 59 -3 90 26 98 14 3 50 23
80 43 77 52 75 26 -4 -82z m-343 -461 c-8 -47 -26 -71 -55 -71 -41 0 -30 45
25 108 26 30 38 15 30 -37z m-154 -502 c0 -52 -52 -119 -92 -119 -38 0 -18 62
35 111 38 34 57 37 57 8z m10753 -200 c11 -17 2 -95 -13 -119 -24 -39 -71 46
-56 103 9 36 50 46 69 16z m-2079 -50 c86 -10 116 -24 73 -34 -29 -8 -493 12
-508 21 -18 11 -8 23 24 27 45 7 317 -2 411 -14z m-13596 -4 c27 -19 180 -34
354 -35 108 0 135 3 180 22 89 36 258 28 258 -12 0 -12 -48 -29 -102 -35 -29
-4 -64 -9 -78 -11 -24 -5 -24 -6 -5 -17 14 -9 112 -12 345 -10 341 1 541 13
700 40 187 31 634 27 1060 -12 85 -7 198 -16 250 -20 52 -3 174 -15 270 -26
222 -24 264 -24 320 3 41 19 68 22 340 29 162 4 320 11 352 15 61 7 73 0 121
-70 21 -31 61 -43 82 -26 9 7 15 29 15 53 l0 40 94 -6 c116 -7 207 -31 238
-64 21 -22 23 -35 27 -146 4 -159 -7 -209 -62 -269 -36 -38 -51 -47 -91 -53
-75 -12 -285 1 -335 19 -33 12 -80 16 -190 16 -141 0 -232 9 -486 50 -282 45
-356 40 -446 -27 l-61 -46 -891 6 c-743 5 -915 8 -1027 22 -158 20 -516 24
-895 11 -137 -5 -312 -5 -388 -1 -137 7 -138 7 -171 39 -43 40 -70 125 -71
224 0 67 2 75 25 93 48 36 58 50 63 91 3 23 14 52 24 66 41 55 134 79 181 47z
m1447 -695 c314 -6 881 -15 1260 -21 380 -6 755 -15 835 -20 80 -5 273 -12
430 -15 234 -5 296 -3 348 9 79 19 104 13 207 -55 59 -39 86 -64 104 -97 45
-82 64 -238 40 -326 -8 -30 -34 -63 -98 -126 -92 -92 -203 -171 -371 -264
-142 -78 -308 -172 -605 -340 -137 -78 -308 -175 -380 -215 -71 -40 -170 -97
-220 -125 -149 -87 -251 -135 -283 -135 -21 0 -46 -13 -82 -42 -70 -57 -268
-180 -545 -338 -60 -35 -198 -113 -305 -175 -191 -109 -455 -259 -495 -281
-126 -69 -602 -347 -696 -408 -37 -23 -53 -12 -68 48 -6 23 -29 81 -52 127
-23 46 -48 102 -56 124 -21 59 -59 121 -112 179 -88 97 -155 229 -186 366 -9
36 -33 115 -55 175 -95 267 -124 407 -145 715 -17 244 -22 304 -36 375 -53
285 -87 757 -59 831 l11 27 172 -9 c215 -11 262 -10 345 10 99 23 120 24 332
20 107 -2 452 -9 765 -14z m9815 -50 c1543 -19 2814 -40 2945 -51 153 -12 253
-28 428 -71 l129 -32 193 19 c181 17 195 17 219 2 35 -23 40 -67 21 -172 -9
-50 -27 -166 -40 -260 -37 -255 -63 -394 -105 -560 -21 -82 -41 -172 -45 -200
-10 -63 -51 -214 -117 -420 -89 -282 -105 -327 -183 -513 -97 -235 -114 -295
-96 -350 19 -57 2 -93 -68 -148 -33 -26 -77 -76 -111 -126 -38 -58 -62 -84
-78 -86 -14 -2 -51 13 -90 36 -72 42 -112 65 -266 149 -166 91 -527 309 -601
363 -152 110 -205 142 -345 203 -168 73 -176 78 -705 392 -220 130 -438 260
-485 287 -47 28 -180 113 -296 189 -116 77 -269 169 -340 205 -71 37 -171 91
-222 120 -52 30 -95 54 -97 54 -7 0 -446 267 -524 319 -137 90 -166 151 -120
251 11 25 27 73 35 108 8 35 24 86 35 115 16 39 20 66 16 110 -5 50 -3 59 16
72 12 9 31 13 42 10 11 -3 396 -10 855 -15z m4336 -104 c10 -42 -9 -150 -27
-154 -38 -7 -51 91 -18 144 25 40 36 43 45 10z m13 -250 c10 -23 -1 -140 -20
-225 -13 -57 -37 -103 -52 -98 -29 9 -23 238 8 308 21 45 51 52 64 15z
m-10518 -396 c20 -11 59 -79 59 -104 0 -9 22 -27 50 -41 66 -33 84 -68 84
-165 1 -59 -4 -84 -22 -119 -31 -59 -57 -78 -125 -92 -41 -8 -98 -36 -200 -96
-78 -46 -216 -120 -307 -165 -90 -44 -191 -99 -225 -123 -83 -59 -152 -99
-280 -163 -60 -30 -123 -64 -140 -77 -68 -51 -355 -175 -485 -209 -169 -44
-264 -99 -388 -223 -52 -51 -115 -105 -140 -120 -26 -15 -72 -43 -102 -63 -30
-20 -80 -50 -110 -65 -70 -37 -246 -140 -349 -204 -44 -28 -121 -73 -173 -102
-51 -28 -106 -62 -121 -75 -16 -13 -59 -42 -95 -63 -37 -22 -80 -53 -97 -71
-32 -34 -163 -114 -310 -190 -49 -26 -148 -84 -219 -129 -71 -46 -181 -112
-245 -148 -64 -37 -133 -77 -154 -90 -28 -18 -42 -21 -56 -14 -22 12 -201 207
-201 220 0 5 7 14 16 21 8 8 27 34 41 59 67 118 202 222 583 450 58 35 141 94
185 131 124 104 509 347 709 447 39 19 80 43 91 53 11 10 38 23 60 30 22 7 45
16 50 21 6 4 43 17 83 28 90 25 199 82 389 204 310 198 362 230 477 289 65 34
148 84 184 111 37 28 111 79 167 114 296 185 320 203 331 250 10 40 39 78 80
103 28 18 43 21 80 15 50 -7 68 2 314 166 149 99 183 115 253 122 44 4 71 15
120 46 63 41 101 50 138 31z m10505 -77 c14 -53 -4 -159 -36 -222 -17 -34 -38
-65 -47 -68 -41 -16 -55 74 -29 192 15 71 28 99 57 119 27 18 47 11 55 -21z
m-9994 -271 c65 -69 73 -88 54 -117 -35 -54 -79 -51 -135 9 l-25 26 33 34 c28
29 31 37 22 54 -13 25 -14 42 -2 42 4 0 29 -22 53 -48z m4669 -265 c20 -12 61
-38 90 -58 30 -20 92 -58 138 -85 80 -47 141 -107 141 -141 0 -20 -13 -17
-164 39 -154 57 -198 87 -255 177 -55 85 -30 118 50 68z m-5173 -61 c26 -13
83 -49 127 -80 44 -31 87 -56 96 -56 26 0 68 -46 94 -102 30 -64 32 -125 10
-295 -18 -137 -7 -112 -245 -513 -220 -371 -384 -655 -770 -1335 -90 -158
-409 -718 -652 -1143 -32 -56 -80 -135 -105 -175 -26 -39 -79 -128 -118 -197
-40 -69 -96 -165 -127 -215 -30 -49 -81 -141 -113 -202 -79 -153 -110 -189
-172 -196 -59 -6 -104 8 -186 62 -35 22 -72 41 -83 41 -56 0 -258 145 -389
279 -46 47 -128 134 -182 193 -307 336 -371 405 -499 537 -77 80 -162 173
-189 206 -27 33 -81 94 -121 135 -155 163 -206 225 -260 316 -30 53 -64 119
-74 148 -20 59 -54 128 -81 167 -54 77 -31 107 169 218 83 46 174 103 204 128
29 24 130 85 223 135 94 50 258 145 365 212 107 67 231 142 275 165 44 24 116
69 160 99 77 54 184 118 534 319 90 52 176 102 190 112 24 17 159 93 506 286
72 39 189 103 260 140 72 38 139 74 150 79 11 6 92 59 180 117 88 59 252 158
365 221 113 64 245 138 295 167 49 28 95 51 102 51 8 0 35 -11 61 -24z m10283
-7 c6 -12 9 -38 6 -58 -7 -50 -36 -113 -47 -106 -13 8 -13 115 1 154 13 36 24
39 40 10z m-5668 -60 c147 -22 181 -36 427 -171 295 -163 363 -202 448 -254
107 -65 238 -142 537 -314 200 -115 327 -189 820 -475 243 -140 959 -563 1220
-720 170 -102 271 -158 525 -295 222 -119 228 -127 163 -222 -82 -119 -192
-266 -270 -362 -45 -56 -118 -146 -161 -201 -169 -214 -665 -725 -866 -890
-60 -49 -144 -119 -185 -154 -42 -35 -94 -78 -116 -96 -22 -18 -68 -56 -103
-84 -34 -29 -115 -88 -180 -133 -64 -45 -144 -101 -177 -125 -67 -49 -101 -54
-133 -20 -13 13 -47 86 -78 163 -82 205 -123 277 -221 389 -106 121 -121 143
-262 412 -61 116 -123 232 -138 257 -37 60 -202 333 -223 371 -10 17 -67 120
-127 230 -61 110 -148 270 -195 355 -47 85 -104 191 -128 235 -23 44 -80 148
-125 230 -45 83 -104 191 -130 240 -27 50 -94 171 -150 270 -57 99 -140 248
-185 330 -46 83 -113 202 -151 265 -37 63 -77 143 -88 176 -30 90 -64 287 -65
379 -2 195 79 250 317 214z m1073 -222 c17 -9 68 -23 115 -31 48 -10 110 -30
145 -48 61 -32 99 -33 88 -3 -11 27 30 17 93 -24 33 -21 63 -44 67 -49 13 -21
-14 -22 -51 -2 -45 24 -53 25 -53 5 0 -8 42 -49 93 -92 91 -76 92 -76 95 -49
2 15 10 30 18 33 16 6 126 -45 168 -78 31 -24 34 -49 6 -49 -11 0 -40 -10 -64
-22 l-45 -21 -53 36 c-59 41 -78 46 -78 20 0 -17 21 -47 94 -138 61 -75 4 -55
-155 56 -131 91 -250 183 -314 243 -27 26 -77 66 -109 88 -76 52 -160 134
-152 146 7 12 46 3 92 -21z m-5056 -82 c0 -8 -6 -24 -12 -35 -18 -28 1 -54 41
-58 45 -5 48 -24 13 -79 -17 -27 -34 -60 -37 -75 -9 -34 -48 -71 -72 -66 -11
2 -19 13 -21 31 -2 19 -9 27 -22 27 -24 0 -55 -33 -131 -137 -33 -46 -62 -83
-65 -83 -26 0 88 208 167 305 23 28 59 80 80 118 39 65 59 83 59 52z m-3212
-342 c-2 -11 -29 -31 -65 -48 -34 -16 -69 -39 -77 -50 -14 -19 -16 -19 -32 -3
-16 16 -16 18 15 35 18 10 56 33 84 50 59 37 80 41 75 16z m5747 -162 c17 -6
43 -13 58 -16 35 -7 46 -33 22 -51 -23 -17 -59 -18 -84 -2 -15 9 -36 8 -97 -7
-109 -25 -144 -29 -144 -17 0 16 61 63 115 88 51 24 76 25 130 5z m257 -186
c61 -93 321 -562 473 -855 67 -129 137 -260 157 -290 37 -58 103 -174 183
-325 26 -49 67 -124 90 -165 23 -41 66 -120 95 -175 29 -55 113 -208 185 -340
73 -132 153 -280 180 -330 26 -49 69 -128 95 -175 26 -47 87 -157 135 -245 48
-88 110 -196 136 -241 26 -44 53 -92 58 -107 6 -14 22 -45 37 -69 54 -84 332
-574 373 -656 59 -117 57 -125 -53 -180 -159 -79 -560 -239 -847 -337 -223
-76 -272 -90 -499 -145 -460 -112 -568 -130 -1180 -205 -63 -8 -146 -18 -185
-24 -38 -6 -70 -9 -72 -8 -1 2 2 381 7 843 5 461 14 1431 20 2154 10 1194 19
1619 36 1721 10 57 32 77 98 90 32 6 84 22 115 36 85 39 273 103 296 100 12
-1 38 -28 67 -72z m-6652 7 c0 -15 -95 -80 -128 -87 -18 -4 -62 -22 -97 -40
-36 -19 -72 -32 -80 -28 -29 10 -9 28 51 44 32 8 79 28 104 44 45 30 129 73
143 74 4 1 7 -3 7 -7z m3255 -445 c-36 -183 -61 -228 -137 -251 -9 -3 -45 -46
-79 -97 -85 -126 -189 -232 -189 -191 0 14 151 285 199 357 26 38 71 113 99
165 29 52 69 118 90 145 32 44 37 47 40 27 2 -12 -8 -82 -23 -155z m4034 -364
c125 -217 188 -363 156 -363 -17 0 -46 34 -103 121 -51 77 -123 213 -137 259
-4 14 -21 54 -37 90 -43 92 -68 158 -68 176 0 22 93 -118 189 -283z m-8149
202 c0 -18 -61 -70 -107 -91 -21 -10 -55 -31 -76 -47 -21 -16 -61 -38 -90 -49
-29 -11 -58 -24 -64 -30 -22 -18 -27 20 -8 62 25 56 63 87 119 100 28 6 79 24
115 39 101 44 111 45 111 16z m12224 -104 c43 -21 61 -51 38 -65 -12 -7 -144
52 -167 75 l-20 21 51 -4 c28 -3 72 -15 98 -27z m-3256 -1189 c29 -42 75 -108
102 -146 56 -81 136 -233 127 -242 -16 -17 -297 414 -297 456 0 23 18 5 68
-68z m-211 -68 c29 -49 64 -119 78 -156 15 -37 48 -102 74 -145 26 -43 78
-136 115 -208 75 -143 114 -210 191 -330 29 -44 76 -125 105 -180 30 -55 88
-156 131 -225 81 -132 96 -164 80 -174 -15 -9 -43 25 -97 120 -27 47 -67 111
-89 142 -50 70 -98 150 -160 267 -86 162 -225 413 -277 503 -138 236 -228 422
-228 470 0 31 28 1 77 -84z m4114 -174 c25 -14 24 -49 -3 -87 -44 -58 -217
-238 -246 -255 -24 -15 -32 -15 -41 -5 -8 10 2 26 43 68 29 31 85 102 124 160
99 144 90 136 123 119z m-3602 -447 c49 -91 66 -151 47 -170 -13 -13 -38 12
-80 82 -59 98 -69 126 -57 158 6 15 16 27 24 27 7 0 37 -44 66 -97z m3271 73
c0 -7 -51 -71 -114 -142 -125 -142 -153 -170 -162 -161 -4 3 22 37 56 74 34
37 76 88 93 113 33 50 107 130 119 130 4 0 8 -6 8 -14z m-9924 -460 c8 -20
-16 -61 -85 -146 -34 -41 -61 -79 -61 -86 0 -6 -9 -19 -20 -29 -17 -15 -20
-16 -20 -3 0 8 8 26 19 39 10 13 33 53 51 89 40 79 87 150 101 150 5 0 12 -6
15 -14z m9484 -27 c0 -27 -122 -154 -213 -222 -47 -35 -70 -59 -74 -78 -8 -42
-55 -92 -161 -171 -53 -40 -135 -106 -182 -146 -133 -117 -162 -121 -112 -20
26 53 64 95 239 265 135 130 240 223 298 263 50 33 112 76 139 95 56 41 66 43
66 14z m-6060 -1038 c16 -32 7 -178 -17 -256 l-6 -20 -8 20 c-9 24 -12 236 -3
259 8 21 21 20 34 -3z"/>
<path d="M10723 18670 c-41 -8 -88 -28 -81 -35 1 -1 83 0 181 3 124 3 177 8
174 16 -8 23 -186 33 -274 16z"/>
<path d="M10445 18577 c-82 -48 -95 -52 -164 -56 -104 -5 -337 17 -430 41 -95
24 -300 34 -397 19 -71 -11 -329 -82 -459 -126 -38 -13 -117 -31 -174 -40 -93
-14 -108 -14 -150 -1 -25 9 -93 22 -151 30 -58 8 -168 26 -245 41 -106 20
-172 26 -275 26 -168 1 -267 -18 -376 -71 -99 -49 -202 -85 -314 -110 -47 -10
-123 -30 -170 -44 -349 -103 -420 -131 -420 -167 0 -29 21 -32 97 -15 115 26
306 65 353 72 40 6 43 5 30 -8 -8 -8 -40 -25 -70 -37 -89 -36 -120 -55 -120
-72 0 -24 21 -29 71 -18 135 29 323 128 335 176 14 55 157 123 358 170 96 22
132 26 261 24 83 0 179 -1 215 -2 36 0 106 3 156 6 76 6 104 3 166 -14 145
-41 387 -22 549 43 100 40 157 55 271 71 166 24 288 20 404 -12 93 -26 111
-28 294 -27 185 0 199 2 275 28 107 36 205 103 177 120 -4 2 -48 -19 -97 -47z"/>
<path d="M11467 18603 c-15 -14 -6 -53 16 -67 12 -8 85 -29 162 -46 77 -16
190 -44 250 -60 150 -41 205 -50 310 -49 126 0 169 9 173 35 2 16 -7 25 -37
39 -34 15 -56 17 -133 12 -108 -8 -163 2 -353 62 -220 69 -366 97 -388 74z"/>
<path d="M10986 18471 c-10 -15 15 -28 129 -64 168 -54 211 -76 186 -91 -5 -3
-77 4 -161 15 -110 16 -154 19 -162 11 -9 -9 -2 -16 24 -26 20 -9 50 -33 67
-55 42 -53 100 -73 286 -100 267 -39 366 -72 687 -230 90 -44 208 -94 263
-112 103 -32 217 -70 247 -84 13 -5 20 -2 25 11 13 35 -111 111 -220 134 -70
14 -654 306 -762 381 -76 53 -195 101 -430 174 -152 47 -170 51 -179 36z"/>
<path d="M12303 18133 c-11 -28 37 -57 178 -107 180 -65 279 -93 375 -108 92
-13 111 -9 120 27 14 58 -52 89 -263 125 -67 11 -174 34 -237 50 -132 34 -164
37 -173 13z"/>
<path d="M6650 17915 c-89 -18 -244 -69 -309 -103 -60 -30 -82 -55 -65 -72 8
-8 37 -2 102 19 50 16 133 39 185 51 96 22 238 85 245 108 5 16 -70 15 -158
-3z"/>
<path d="M13239 17806 c6 -7 44 -24 83 -37 93 -30 360 -165 467 -237 46 -31
102 -69 124 -84 75 -51 107 -23 43 37 -129 121 -567 335 -688 335 -33 0 -38
-2 -29 -14z"/>
<path d="M6075 17661 c-45 -12 -154 -69 -182 -97 -46 -46 -2 -58 93 -24 54 19
198 101 209 121 7 11 -75 11 -120 0z"/>
<path d="M13970 17614 c1 -5 20 -24 43 -41 298 -228 461 -351 504 -380 29 -19
76 -60 103 -91 36 -40 53 -53 61 -45 26 26 -58 119 -201 224 -102 75 -475 328
-494 335 -9 3 -16 2 -16 -2z"/>
<path d="M14405 17480 c-3 -5 23 -23 57 -41 234 -116 577 -383 630 -489 13
-26 31 -47 42 -49 23 -4 46 24 46 56 0 35 30 29 72 -14 19 -21 67 -83 105
-138 104 -147 170 -205 359 -313 91 -53 174 -116 269 -204 68 -63 194 -206
238 -268 31 -45 28 -12 -6 62 -46 99 -135 214 -248 323 -104 101 -177 154
-288 210 -141 70 -193 121 -321 310 -119 176 -166 215 -263 215 -53 0 -59 3
-154 73 -129 96 -202 145 -293 197 -117 66 -228 98 -245 70z"/>
<path d="M5520 17391 c-181 -63 -196 -70 -320 -144 -168 -101 -320 -221 -320
-254 0 -26 39 -12 138 52 147 93 177 107 216 100 29 -6 43 1 137 71 102 76
238 167 315 211 66 37 11 25 -166 -36z"/>
<path d="M5668 17112 c-54 -31 -134 -77 -178 -101 -88 -48 -159 -105 -148
-117 4 -4 48 12 97 34 49 23 92 42 95 42 2 0 42 17 88 39 46 21 117 51 158 65
41 15 90 37 109 48 34 21 34 22 11 30 -13 5 -49 11 -79 13 -53 4 -61 1 -153
-53z"/>
<path d="M14360 17131 c0 -28 145 -120 213 -137 69 -16 10 38 -113 105 -75 41
-100 49 -100 32z"/>
<path d="M4512 16721 c-69 -24 -120 -65 -160 -132 -42 -70 -52 -105 -59 -210
-7 -113 13 -185 67 -239 33 -33 47 -39 97 -46 68 -8 156 11 241 54 56 28 109
79 95 92 -4 5 -39 10 -77 12 -66 4 -71 6 -102 42 -79 91 -84 221 -10 246 37
12 72 4 142 -34 65 -35 124 -34 124 2 0 23 -69 129 -111 172 -60 60 -149 75
-247 41z"/>
<path d="M16530 15687 c0 -29 22 -50 141 -136 50 -36 95 -73 99 -81 46 -91
100 -226 95 -238 -7 -20 -37 8 -167 159 -115 135 -165 176 -186 155 -17 -17
-5 -44 43 -96 17 -19 69 -82 115 -140 47 -58 112 -136 145 -175 34 -38 79 -99
100 -135 21 -36 62 -103 90 -150 29 -47 61 -101 70 -120 44 -87 110 -166 265
-320 171 -170 187 -192 239 -330 22 -57 28 -105 12 -96 -4 3 -22 34 -39 68
-36 75 -66 110 -88 101 -26 -10 -10 -69 65 -247 38 -88 72 -174 75 -190 11
-44 120 -269 139 -285 31 -25 30 -4 -3 89 -61 177 -93 449 -55 464 34 13 101
-110 194 -354 77 -205 101 -262 125 -296 l26 -39 0 32 c0 49 -143 472 -195
574 -54 106 -94 168 -197 300 -40 52 -100 129 -132 172 -33 43 -121 140 -196
215 -169 171 -208 231 -336 531 -108 254 -139 310 -231 429 -100 129 -213 202
-213 139z"/>
<path d="M16950 14770 c0 -66 274 -460 320 -460 5 0 10 2 10 5 0 15 -47 94
-99 168 -33 45 -78 116 -102 157 -72 129 -129 186 -129 130z"/>
<path d="M17830 12921 c-49 -26 -72 -62 -78 -121 -5 -56 -35 -90 -78 -90 -33
0 -35 -10 -23 -92 16 -110 27 -144 55 -178 39 -45 59 -53 99 -39 39 14 65 1
65 -33 0 -28 28 -78 45 -78 13 0 45 36 45 52 0 4 -16 23 -35 42 -33 33 -35 40
-35 99 0 36 -7 81 -15 100 -21 52 -19 81 11 116 27 32 57 40 70 19 5 -7 16
-40 25 -73 20 -76 40 -79 77 -10 36 66 71 80 108 43 23 -23 26 -33 25 -102 -1
-88 11 -97 40 -31 26 58 35 157 19 215 -17 65 -88 131 -170 159 -83 28 -200
29 -250 2z"/>
<path d="M9866 17244 c-13 -34 0 -174 16 -174 13 0 38 64 38 99 0 56 -40 111
-54 75z"/>
<path d="M10089 17098 c-1 -2 -5 -93 -9 -203 -4 -110 -15 -314 -25 -453 -12
-175 -14 -257 -7 -264 56 -56 135 723 88 877 -7 23 -19 41 -29 43 -9 2 -18 2
-18 0z"/>
<path d="M10112 14205 c-7 -15 -12 -80 -13 -158 0 -204 -13 -334 -39 -391 -28
-61 -23 -101 22 -181 18 -33 50 -100 70 -150 l37 -90 0 49 c1 27 -6 76 -15
108 -15 52 -15 64 -3 101 19 56 19 487 1 606 -13 82 -29 131 -42 131 -4 0 -12
-11 -18 -25z"/>
<path d="M13359 16442 c-41 -42 -60 -89 -39 -102 42 -26 136 74 116 125 -9 25
-36 17 -77 -23z"/>
<path d="M13498 15887 c-39 -31 -198 -321 -198 -361 0 -18 2 -18 26 5 55 51
183 263 199 330 8 31 -6 44 -27 26z"/>
<path d="M12840 15024 c-122 -113 -240 -276 -309 -428 -53 -114 -86 -227 -111
-373 -11 -68 -25 -134 -30 -149 -14 -36 -145 -256 -173 -290 -13 -16 -59 -83
-102 -149 -44 -65 -91 -133 -106 -150 -57 -65 -99 -127 -93 -136 28 -46 337
335 462 571 73 136 110 237 123 327 15 105 44 220 75 290 42 94 158 281 259
418 97 130 98 155 5 69z"/>
<path d="M11353 13008 c-88 -93 -242 -375 -213 -393 8 -5 23 16 141 200 89
137 119 191 119 209 0 24 -13 19 -47 -16z"/>
<path d="M12587 8533 c-4 -3 -7 -14 -7 -24 0 -14 17 -23 68 -38 46 -14 77 -31
97 -52 17 -17 60 -48 97 -70 36 -21 79 -49 95 -62 15 -13 51 -36 78 -52 77
-43 227 -145 257 -173 44 -41 46 -16 2 29 -51 53 -153 128 -287 213 -63 40
-118 83 -134 105 -38 53 -71 79 -132 107 -51 23 -120 32 -134 17z"/>
<path d="M13190 8337 c0 -22 31 -44 151 -108 138 -73 286 -171 354 -233 48
-44 75 -57 75 -36 0 50 -263 256 -446 351 -76 40 -134 51 -134 26z"/>
<path d="M9763 7245 c-7 -19 13 -127 32 -172 16 -39 42 -43 51 -9 7 29 -12
129 -32 169 -16 30 -41 36 -51 12z"/>
<path d="M8026 6634 c-22 -21 -75 -127 -122 -241 -19 -48 -49 -117 -65 -152
-17 -35 -28 -68 -26 -74 6 -20 104 122 161 234 61 117 96 223 79 240 -7 7 -16
5 -27 -7z"/>
<path d="M6954 4863 c-14 -15 -74 -126 -135 -246 -99 -199 -127 -269 -99 -252
25 15 211 313 256 410 41 86 27 141 -22 88z"/>
<path d="M9692 4537 c-11 -72 -18 -556 -7 -546 6 6 28 568 23 599 -2 14 -9 -9
-16 -53z"/>
<path d="M6498 4038 c-41 -56 -148 -351 -148 -410 0 -26 2 -27 20 -16 11 7 33
37 49 68 43 81 141 335 141 364 0 37 -32 34 -62 -6z"/>
<path d="M13193 3943 c-22 -8 -15 -24 52 -133 36 -58 73 -130 82 -160 19 -69
29 -81 42 -48 13 36 -11 133 -50 203 -38 67 -109 145 -126 138z"/>
<path d="M6178 3653 c-13 -21 -37 -69 -52 -108 -45 -111 -47 -250 -4 -182 19
29 108 283 108 308 0 31 -25 22 -52 -18z"/>
<path d="M6954 15385 c-11 -28 18 -84 77 -152 86 -96 126 -159 174 -276 77
-186 114 -258 163 -315 86 -102 142 -192 232 -372 50 -101 63 -117 100 -125
35 -8 127 -103 136 -141 8 -36 45 -104 56 -104 23 0 -1 67 -78 218 -93 181
-109 206 -123 183 -15 -23 -35 -6 -68 55 -41 78 -106 252 -98 264 13 21 37 8
67 -35 36 -50 46 -52 29 -3 -15 42 -59 88 -85 88 -45 0 -86 38 -121 114 -19
41 -35 79 -35 86 0 7 -7 10 -17 5 -10 -3 -22 -7 -27 -8 -4 -1 -29 48 -55 108
-59 137 -64 147 -116 215 -55 72 -184 210 -196 210 -5 0 -12 -7 -15 -15z"/>
<path d="M3265 15627 c-114 -54 -175 -181 -175 -361 l0 -72 53 -45 c80 -69
108 -86 170 -104 63 -18 112 -13 122 12 3 10 -8 37 -28 67 -70 102 -67 166 11
269 21 29 42 60 45 70 15 41 87 -5 122 -79 14 -29 30 -54 35 -54 17 0 40 45
40 80 -1 48 -30 108 -76 153 -59 59 -107 80 -194 84 -64 3 -83 0 -125 -20z"/>
<path d="M2738 14733 c-34 -41 -58 -93 -58 -127 0 -51 -21 -96 -91 -194 -54
-75 -115 -195 -210 -415 -27 -62 -31 -95 -8 -82 12 8 72 112 149 260 68 128
127 226 207 343 65 93 81 131 62 143 -8 5 -22 9 -31 9 -21 0 -22 7 -3 40 24
42 13 57 -17 23z"/>
<path d="M2938 14703 c-48 -56 -110 -215 -91 -234 9 -9 123 208 123 236 0 20
-13 19 -32 -2z"/>
<path d="M2458 14433 c-37 -41 -128 -168 -173 -243 -22 -36 -58 -87 -82 -113
-72 -82 -166 -236 -188 -307 -4 -14 -21 -54 -37 -89 -16 -35 -31 -78 -34 -95
l-6 -31 24 26 c13 15 32 42 43 60 l20 34 3 -42 c2 -23 -4 -78 -12 -123 -18
-94 -21 -164 -6 -155 5 3 19 38 30 78 41 143 95 300 135 392 85 197 166 360
214 430 15 22 42 61 60 87 44 64 66 118 48 118 -7 0 -25 -12 -39 -27z"/>
<path d="M2500 13938 c-42 -160 -53 -186 -147 -343 -16 -27 -51 -90 -78 -140
-26 -49 -63 -111 -82 -137 -24 -33 -33 -56 -31 -75 4 -40 19 -35 47 17 13 25
48 74 76 110 74 93 107 144 170 262 69 131 105 233 105 298 0 46 -2 50 -25 50
-20 0 -26 -7 -35 -42z"/>
<path d="M2216 12859 c-69 -76 -156 -231 -156 -279 0 -11 -11 -42 -24 -68 -39
-79 -147 -440 -166 -557 -13 -79 -13 -182 1 -244 22 -106 39 -65 69 169 22
170 113 549 154 640 13 30 60 123 105 205 44 83 81 156 81 163 0 24 -28 11
-64 -29z"/>
<path d="M1609 12453 c-70 -67 -104 -123 -154 -257 -47 -127 -86 -276 -131
-496 -34 -169 -36 -187 -45 -495 -5 -176 -14 -354 -20 -395 -6 -41 -14 -187
-19 -325 -7 -220 -11 -255 -29 -295 -48 -106 -7 -414 58 -435 26 -8 51 -147
70 -392 6 -76 17 -146 26 -165 14 -31 15 -20 10 152 -3 102 -10 228 -15 280
-16 163 -12 335 10 420 21 81 26 150 10 150 -5 0 -20 -12 -34 -26 -32 -35 -52
-26 -61 26 -7 44 0 183 15 285 12 76 26 337 40 710 12 311 22 393 77 635 66
291 138 476 222 574 28 32 41 57 41 77 0 16 -3 29 -6 29 -3 0 -32 -26 -65 -57z"/>
<path d="M1723 12003 c-11 -21 -26 -60 -32 -88 -19 -83 -52 -184 -98 -305 -61
-161 -87 -302 -86 -465 0 -121 2 -136 31 -213 36 -93 39 -120 17 -162 -8 -16
-19 -55 -24 -87 -5 -32 -16 -83 -25 -113 -20 -72 -58 -350 -54 -395 2 -20 8
-36 13 -36 15 -1 34 61 66 221 36 173 63 283 91 365 31 87 27 150 -17 290 -29
93 -38 136 -37 190 1 117 64 375 107 441 39 60 109 300 103 356 -4 47 -29 47
-55 1z"/>
<path d="M1835 11058 c-7 -18 -18 -58 -23 -88 -6 -30 -15 -68 -21 -83 -6 -16
-11 -59 -11 -97 0 -38 -7 -101 -15 -139 -18 -89 -47 -385 -43 -446 4 -54 22
-65 26 -15 2 19 19 127 38 240 20 113 40 239 46 280 5 41 21 120 34 175 32
135 32 205 -3 205 -8 0 -20 -15 -28 -32z"/>
<path d="M1597 9544 c-10 -11 -8 -112 4 -201 18 -132 59 -262 162 -518 l44
-110 12 -310 c23 -583 32 -629 185 -884 31 -52 56 -99 56 -104 0 -4 8 -27 19
-50 10 -23 44 -100 76 -170 31 -71 85 -208 120 -305 42 -118 69 -178 79 -180
20 -4 20 3 -3 90 -11 40 -23 100 -26 133 -12 114 -27 170 -82 300 -69 165 -58
141 -148 340 -146 321 -148 329 -170 652 -33 500 -35 522 -61 610 -14 47 -48
131 -77 187 -29 56 -58 115 -64 131 -22 54 -64 197 -84 290 -19 88 -29 112
-42 99z"/>
<path d="M1805 9430 c-4 -12 0 -77 9 -144 8 -66 20 -168 26 -226 10 -105 23
-140 37 -105 8 22 -13 416 -25 460 -10 36 -38 45 -47 15z"/>
<path d="M1445 9411 c-11 -19 3 -125 30 -221 37 -131 54 -249 65 -439 13 -211
52 -485 71 -497 14 -8 10 124 -10 356 -11 118 -22 258 -26 310 -9 123 -38 300
-64 388 -24 78 -53 124 -66 103z"/>
<path d="M2066 7033 c-17 -18 -3 -100 34 -193 22 -55 49 -131 59 -168 11 -37
29 -98 40 -137 41 -137 63 -245 51 -245 -14 0 -182 364 -205 444 -8 27 -15 82
-15 121 0 110 -43 147 -105 90 -34 -32 -30 -59 25 -185 21 -48 44 -107 50
-131 13 -48 45 -126 95 -234 31 -67 79 -196 105 -280 23 -71 103 -227 136
-261 25 -27 39 -34 70 -34 56 -1 117 -32 183 -95 78 -74 106 -135 121 -259 17
-141 48 -216 167 -396 38 -58 112 -155 164 -216 52 -61 113 -137 136 -168 46
-60 63 -69 63 -34 0 27 -51 113 -140 233 -156 211 -309 455 -332 528 -32 104
-21 187 26 187 111 0 383 -201 400 -295 20 -109 37 -140 52 -92 4 12 11 25 17
29 32 20 154 -71 225 -167 24 -33 80 -132 123 -220 78 -160 94 -173 63 -51
-53 211 -159 389 -283 473 -50 34 -71 43 -106 43 -64 0 -71 5 -96 73 -33 90
-99 152 -230 217 -218 110 -270 154 -300 252 -23 79 -60 130 -80 111 -7 -7
-15 -32 -18 -55 -5 -35 -10 -44 -28 -46 -57 -8 -121 85 -168 243 -31 102 -32
106 -81 310 -19 83 -42 170 -49 195 -69 227 -91 293 -115 346 -28 61 -42 79
-54 67z"/>
<path d="M2435 6110 c-10 -16 3 -44 30 -70 48 -45 78 8 30 55 -25 26 -50 32
-60 15z"/>
<path d="M2758 5044 c-23 -23 10 -121 60 -178 15 -17 49 -70 75 -117 54 -97
210 -294 284 -359 74 -65 223 -166 310 -210 85 -43 169 -63 161 -39 -4 14 -25
29 -228 162 -66 42 -149 108 -193 151 -109 109 -152 164 -347 449 -68 98 -113
151 -122 141z"/>
<path d="M3910 4355 c0 -8 35 -55 79 -103 121 -135 603 -606 668 -653 32 -23
70 -56 85 -73 24 -27 27 -29 28 -10 0 11 -10 34 -23 51 -12 17 -197 205 -410
417 -367 365 -427 417 -427 371z"/>
<path d="M3624 4334 c-10 -37 20 -71 107 -124 93 -56 209 -166 298 -284 38
-50 106 -134 150 -186 44 -52 124 -150 176 -217 159 -202 215 -242 442 -318
l112 -37 109 -116 c140 -151 217 -246 243 -299 24 -49 59 -60 59 -19 0 61
-153 280 -297 423 -71 71 -96 88 -190 133 -266 127 -276 133 -338 195 -33 33
-100 114 -149 180 -49 66 -122 158 -161 205 -40 47 -104 128 -142 180 -107
146 -163 197 -283 258 -58 29 -111 52 -117 52 -7 0 -16 -12 -19 -26z"/>
<path d="M5010 3238 c0 -21 140 -149 230 -211 47 -32 143 -101 215 -152 199
-145 370 -225 476 -225 29 0 52 -19 209 -175 97 -96 179 -175 183 -175 13 0
-29 74 -74 130 -126 160 -276 271 -439 324 -126 42 -172 71 -479 299 -238 178
-321 226 -321 185z"/>
<path d="M5595 2440 c-20 -32 52 -85 232 -172 139 -67 190 -98 270 -166 54
-46 86 -52 91 -17 14 99 -545 433 -593 355z"/>
<path d="M6798 2296 c-67 -18 -94 -39 -114 -92 -15 -40 -16 -54 -6 -101 25
-121 83 -203 176 -250 72 -37 136 -36 176 2 29 28 30 30 13 46 -10 10 -45 33
-77 51 -95 53 -98 75 -14 98 30 9 38 17 50 52 7 23 18 43 25 45 7 3 23 -14 38
-36 31 -49 51 -52 69 -9 17 38 7 70 -32 111 -64 68 -210 108 -304 83z"/>
<path d="M6350 12089 c38 -32 53 -42 265 -160 95 -54 150 -79 172 -79 39 0 46
26 10 39 -12 5 -47 23 -77 41 -30 18 -118 64 -195 102 -77 38 -148 73 -157 78
-10 6 -26 10 -35 10 -14 -1 -9 -8 17 -31z"/>
<path d="M9710 12280 c-130 -14 -243 -35 -375 -69 -149 -39 -198 -57 -322
-119 -54 -27 -132 -64 -173 -82 -88 -39 -241 -141 -366 -245 -60 -50 -294
-317 -359 -410 -20 -27 -53 -72 -74 -99 -104 -131 -277 -550 -310 -751 -6 -33
-18 -94 -27 -135 -13 -59 -17 -128 -17 -325 0 -224 2 -259 21 -335 12 -47 22
-101 22 -121 0 -20 18 -106 40 -192 32 -125 53 -181 105 -286 36 -71 65 -133
65 -137 0 -13 102 -179 126 -204 13 -14 36 -48 51 -76 51 -93 248 -308 379
-414 168 -135 216 -166 442 -285 246 -129 347 -162 667 -217 254 -43 615 -25
855 43 214 61 473 156 550 201 58 35 273 180 305 206 292 239 498 482 625 737
84 169 159 392 200 593 42 209 50 280 56 512 11 384 -41 662 -167 892 -20 37
-45 90 -54 118 -9 28 -36 76 -60 108 -23 31 -56 84 -73 117 -43 86 -98 155
-215 273 -184 186 -391 349 -568 446 -173 95 -421 186 -629 231 -115 25 -146
28 -380 30 -140 2 -293 -1 -340 -5z m705 -149 c164 -35 218 -55 403 -142 255
-121 423 -235 599 -406 270 -263 493 -625 564 -918 21 -90 24 -125 9 -125 -16
0 -46 55 -86 157 -39 97 -69 139 -80 110 -3 -8 -1 -30 5 -49 21 -72 91 -252
110 -283 19 -33 19 -33 -3 -54 -20 -20 -21 -34 -27 -259 -4 -130 -10 -294 -14
-363 l-8 -127 28 -36 c38 -50 42 -105 17 -251 -36 -207 -113 -401 -235 -587
-59 -91 -102 -137 -286 -308 -251 -232 -316 -278 -558 -400 -136 -68 -282
-118 -468 -160 -174 -39 -287 -51 -490 -51 -193 -1 -305 11 -455 47 -364 86
-684 267 -989 559 -181 174 -319 349 -308 392 3 14 27 -5 103 -82 55 -55 126
-133 157 -172 32 -40 64 -73 72 -73 8 0 15 3 15 6 0 8 -130 181 -212 282 -38
46 -68 91 -68 100 0 10 -25 49 -55 87 -105 136 -115 154 -109 199 11 89 15
106 24 106 5 0 23 -24 40 -54 17 -30 49 -76 71 -103 22 -26 54 -73 70 -104 48
-88 119 -151 119 -104 0 32 28 12 85 -62 154 -196 445 -448 601 -520 52 -23
55 -27 49 -52 -16 -65 -16 -80 0 -112 23 -46 75 -99 96 -99 25 0 55 43 63 88
8 52 29 70 49 42 13 -18 13 -30 1 -93 -8 -40 -14 -76 -14 -81 0 -17 29 16 67
75 21 33 48 62 60 65 12 3 77 -4 145 -15 68 -12 208 -27 312 -35 151 -11 192
-17 202 -30 6 -9 17 -44 23 -79 23 -113 38 -131 69 -77 15 27 21 30 62 28 51
-3 47 -14 39 116 l-4 60 205 76 c274 102 317 121 407 175 167 102 346 256 498
430 57 66 190 272 230 359 45 96 120 316 154 451 39 155 50 515 19 675 -20
111 -90 348 -129 440 -87 205 -208 380 -384 555 -95 95 -151 141 -267 217
-241 160 -425 249 -554 267 -72 11 -176 50 -182 70 -7 20 98 8 172 -20 43 -17
60 -19 68 -11 9 9 7 19 -9 39 -66 89 -366 136 -467 73 -35 -21 -41 -22 -112
-11 -172 26 -479 -4 -632 -61 -71 -27 -86 -18 -33 20 112 81 408 145 561 121
136 -22 135 -22 150 -4 13 16 11 20 -15 41 -34 27 -76 41 -152 50 -29 4 -53
10 -53 15 0 14 53 17 285 15 217 -2 238 -4 380 -35z m-947 -23 c-3 -7 -29 -22
-59 -33 -50 -19 -167 -79 -284 -147 -82 -47 -167 -85 -221 -97 -27 -7 -75 -26
-105 -43 -67 -39 -378 -343 -495 -484 -76 -92 -127 -134 -164 -134 -26 0 1 65
57 140 79 104 309 331 423 416 121 91 284 192 380 236 131 61 143 66 230 94
47 14 105 35 130 44 54 22 114 26 108 8z m-43 -247 c15 -25 -116 -84 -137 -63
-15 15 0 32 46 53 45 20 82 24 91 10z m625 -91 c370 -39 732 -194 1027 -441
155 -131 294 -304 392 -491 29 -57 68 -125 87 -153 57 -85 124 -275 135 -385
24 -238 -24 -699 -90 -868 -58 -147 -225 -450 -296 -537 -74 -89 -399 -356
-485 -397 -277 -132 -380 -167 -600 -204 -140 -24 -417 -24 -550 0 -367 66
-664 214 -920 460 -229 220 -378 457 -470 751 -59 189 -75 301 -74 520 0 152
5 214 23 310 27 146 65 261 95 295 36 38 49 70 57 133 13 107 158 314 369 528
119 119 198 182 256 203 22 7 74 36 115 64 264 177 577 248 929 212z m-880
-20 c0 -6 -12 -16 -27 -23 -16 -6 -48 -24 -72 -39 -44 -28 -81 -36 -81 -19 0
13 27 32 88 62 60 29 92 36 92 19z m-657 -511 c-10 -17 -44 -59 -75 -93 -49
-52 -57 -58 -58 -38 0 13 12 48 26 78 26 55 60 83 102 84 23 0 23 0 5 -31z
m-338 -207 c-3 -14 -23 -60 -44 -102 -21 -41 -55 -118 -75 -170 -52 -130 -84
-190 -101 -190 -22 0 -19 74 6 156 27 87 131 280 170 317 34 32 54 27 44 -11z
m-334 -940 c9 -319 37 -527 91 -674 21 -59 19 -113 -5 -105 -17 5 -34 43 -51
117 -8 36 -24 91 -35 122 -37 100 -54 239 -55 443 -1 121 4 212 12 250 7 33
15 71 18 84 12 56 19 -5 25 -237z m4167 204 c7 -15 18 -57 24 -93 11 -72 8
-347 -5 -359 -28 -28 -45 74 -54 315 -5 147 -4 173 8 169 8 -2 20 -17 27 -32z
m-3930 -299 c9 -122 13 -231 9 -240 -7 -19 -32 -13 -41 10 -11 28 -19 316 -11
397 12 132 27 75 43 -167z m-59 -376 c35 -35 47 -135 24 -214 -7 -26 -26 -7
-51 51 -27 63 -37 134 -23 161 14 26 26 26 50 2z"/>
<path d="M9757 11619 c-310 -36 -543 -138 -814 -356 -247 -199 -390 -393 -500
-676 -78 -204 -112 -466 -93 -720 16 -213 48 -320 176 -597 60 -128 253 -373
370 -468 172 -141 274 -202 472 -287 206 -87 269 -99 512 -99 184 0 218 3 330
27 289 61 455 134 707 312 309 218 465 445 557 810 43 174 60 308 60 485 1
163 0 167 -41 325 -23 88 -58 199 -76 247 -119 302 -343 575 -616 753 -148 96
-192 117 -331 163 -234 76 -500 106 -713 81z m488 -138 c184 -36 435 -136 435
-172 0 -21 -48 -60 -110 -88 -66 -30 -93 -27 -124 14 -33 42 -93 64 -131 47
-36 -17 -31 -40 25 -109 70 -86 77 -89 149 -58 98 41 140 30 157 -40 13 -55
44 -106 62 -103 22 4 30 38 31 130 2 122 23 153 84 121 38 -19 159 -133 198
-186 28 -38 29 -67 4 -67 -25 0 -27 -20 -6 -54 31 -50 27 -83 -14 -122 -35
-32 -93 -53 -114 -39 -15 9 -14 41 4 99 20 67 20 162 -1 170 -22 8 -66 -17
-103 -59 -43 -49 -40 -63 12 -67 41 -3 42 -4 45 -43 3 -41 -27 -105 -48 -105
-6 0 -41 29 -78 63 -81 76 -106 93 -152 102 -19 4 -84 31 -145 61 -139 67
-288 116 -440 144 -116 21 -122 21 -239 5 -67 -9 -155 -25 -196 -35 -132 -32
-128 -32 -142 -10 -16 26 -38 25 -85 -2 -30 -17 -132 -93 -187 -140 -22 -18 5
-18 40 1 26 14 42 17 48 11 17 -17 -4 -41 -80 -92 -120 -82 -194 -181 -194
-262 0 -26 -11 -56 -36 -96 -59 -96 -85 -181 -94 -303 -8 -117 -23 -148 -77
-162 -59 -15 -158 -100 -147 -128 2 -7 25 -19 49 -26 39 -12 48 -11 70 3 13 9
32 30 40 46 9 17 20 30 25 30 5 0 16 -35 25 -77 26 -122 55 -203 98 -273 22
-36 50 -93 63 -128 30 -79 62 -129 108 -170 69 -60 74 -34 16 86 -64 132 -51
138 48 20 105 -127 115 -143 107 -179 -4 -18 -8 -44 -9 -60 -1 -16 -5 -32 -9
-35 -18 -18 -190 -31 -214 -16 -6 4 -16 20 -22 35 -15 40 -51 37 -51 -3 0 -17
6 -46 14 -65 16 -37 38 -46 146 -62 l55 -8 3 -57 c2 -32 6 -58 9 -58 4 0 19
12 34 26 37 35 83 34 182 -6 83 -33 110 -35 115 -9 2 12 -23 30 -86 62 -138
71 -148 97 -32 77 46 -8 114 -10 193 -5 101 5 130 3 172 -11 40 -13 97 -18
280 -21 261 -5 306 1 315 37 3 15 24 37 50 54 174 113 298 240 393 399 107
179 155 337 164 543 3 74 10 137 14 140 12 7 47 -36 53 -65 3 -14 8 -50 11
-79 8 -58 25 -61 25 -3 0 20 7 46 15 57 15 19 15 19 31 -1 40 -50 -10 -323
-96 -525 -18 -41 -44 -102 -58 -135 -33 -78 -42 -184 -17 -205 16 -13 25 -7
91 63 74 78 91 107 173 295 69 155 79 228 30 201 -17 -9 -24 -8 -36 4 -20 20
-35 102 -28 152 15 98 52 129 47 39 -4 -67 4 -94 28 -94 27 0 40 30 40 89 0
59 -12 93 -45 133 -27 32 -32 76 -14 107 16 24 5 63 -22 79 -19 12 -25 10 -60
-23 -22 -22 -44 -35 -52 -32 -8 3 -36 43 -62 89 -26 45 -76 126 -111 179 -88
136 -88 140 8 174 26 9 67 32 92 51 25 19 48 34 51 34 9 0 85 -82 85 -92 0 -5
-15 -15 -33 -23 -69 -29 -90 -92 -53 -163 37 -71 94 -37 117 67 6 30 16 63 23
73 16 26 51 22 81 -9 27 -30 72 -138 82 -197 6 -38 3 -40 -45 -36 -38 3 -37
-27 2 -84 34 -50 45 -79 83 -220 14 -50 15 -66 3 -105 -18 -66 -28 -113 -45
-216 -32 -196 -125 -438 -178 -463 -12 -5 -55 -38 -96 -72 -116 -98 -221 -165
-312 -199 -46 -17 -97 -38 -112 -46 -16 -8 -37 -15 -47 -15 -25 0 -65 -34 -56
-48 5 -8 40 -12 98 -12 l91 0 -24 -26 c-69 -74 -315 -207 -440 -238 -100 -25
-121 -9 -74 54 30 41 32 76 5 110 -23 29 -25 53 -7 67 6 5 38 19 70 31 129 48
124 49 -220 44 -391 -5 -434 -18 -146 -42 139 -11 167 -21 183 -61 7 -16 28
-50 46 -76 47 -66 44 -85 -21 -149 -30 -30 -55 -59 -55 -64 0 -19 -79 -34
-178 -34 -56 1 -105 4 -108 7 -4 3 3 26 15 50 28 58 29 164 2 198 -16 20 -21
21 -35 10 -23 -20 -36 -76 -36 -164 0 -92 -4 -95 -93 -77 -432 91 -812 383
-1010 775 -179 356 -208 781 -81 1165 63 190 187 411 297 527 69 74 236 207
300 239 28 15 74 43 102 64 95 70 211 116 380 149 141 28 159 29 355 26 123
-3 205 -10 275 -24z m-160 -555 c103 -18 153 -41 245 -110 41 -30 90 -59 108
-62 45 -9 143 -84 204 -158 86 -102 113 -189 64 -202 -53 -13 -126 35 -196
130 -25 33 -65 75 -90 93 -25 18 -65 48 -89 68 -66 55 -76 47 -76 -60 l0 -90
-110 -5 c-89 -5 -119 -10 -155 -29 -25 -13 -103 -52 -174 -88 -71 -35 -142
-73 -157 -84 -15 -11 -63 -65 -105 -121 -103 -135 -135 -216 -142 -354 -5
-115 7 -166 44 -191 23 -15 27 -15 41 0 13 13 14 22 4 56 -6 23 -16 59 -22 82
-8 28 -9 43 -1 51 16 16 29 2 62 -66 22 -47 51 -83 108 -137 93 -88 168 -129
233 -129 25 0 54 -6 64 -14 19 -14 19 -15 2 -33 -25 -28 -21 -40 16 -52 l32
-12 -25 -19 c-40 -32 -122 -69 -167 -76 -32 -5 -52 -1 -85 15 -55 27 -166 126
-214 194 -21 28 -58 75 -82 102 -25 28 -49 60 -55 73 -11 25 -32 29 -40 9 -3
-8 -8 -39 -12 -69 -6 -50 -4 -64 28 -134 20 -44 39 -91 42 -106 10 -41 24 -48
72 -35 51 13 110 -7 181 -61 45 -35 52 -36 147 -42 104 -6 137 -17 155 -50 14
-26 13 -46 -6 -64 -40 -40 -258 -5 -394 64 -75 38 -227 157 -277 216 -60 73
-75 100 -84 151 -11 60 -33 92 -70 105 -48 17 -63 89 -56 268 3 80 10 170 17
200 48 236 104 360 214 477 148 157 331 256 541 294 125 22 160 22 260 5z
m1091 -81 c42 -42 14 -65 -62 -50 -37 7 -42 19 -18 53 20 29 49 28 80 -3z
m-689 -454 c23 -44 36 -58 63 -66 26 -8 38 -20 52 -53 28 -63 48 -167 48 -253
0 -63 -3 -79 -20 -94 -17 -15 -24 -16 -50 -5 -58 24 -116 115 -175 275 -20 55
-57 130 -81 166 -24 37 -44 71 -44 75 0 5 40 10 89 10 l88 2 30 -57z m-593
-76 c13 -10 44 -15 92 -15 56 0 77 -4 95 -19 l24 -19 -23 -25 c-31 -33 -124
-74 -194 -85 -45 -7 -62 -15 -83 -40 -30 -36 -45 -39 -85 -16 -36 22 -60 64
-60 107 0 43 31 69 124 103 72 27 85 28 110 9z m224 -439 c7 -59 -46 -104
-107 -90 -29 7 -81 51 -81 70 0 28 80 54 155 51 25 -2 31 -7 33 -31z m370
-133 c2 -27 -6 -62 -23 -104 -20 -46 -25 -73 -21 -99 7 -43 -13 -66 -101 -120
-67 -40 -86 -37 -93 15 -5 36 -8 40 -40 45 -69 12 -73 22 -30 85 87 126 213
228 275 223 28 -3 30 -6 33 -45z"/>
<path d="M9865 11396 c-22 -33 -10 -54 39 -67 23 -6 60 -29 84 -51 65 -60 92
-36 52 46 -40 83 -141 125 -175 72z"/>
<path d="M9605 11317 c-41 -22 -80 -96 -70 -134 5 -22 10 -24 38 -18 18 3 51
9 75 12 35 4 43 9 49 32 10 35 5 52 -20 79 -32 35 -50 42 -72 29z"/>
<path d="M8974 10900 c-51 -20 -227 -273 -253 -365 -13 -48 -15 -142 -2 -149
15 -10 31 19 62 115 36 111 98 219 179 312 33 38 60 72 60 77 0 13 -23 18 -46
10z"/>
<path d="M8660 9624 c-21 -24 9 -47 61 -46 46 1 63 16 48 44 -13 23 -91 25
-109 2z"/>
<path d="M8677 9413 c-31 -30 29 -113 82 -113 37 0 130 40 150 64 22 27 0 34
-74 23 -57 -8 -68 -7 -98 12 -36 22 -49 25 -60 14z"/>
<path d="M10425 8863 c-82 -17 -125 -65 -71 -79 46 -11 163 56 139 80 -7 6
-36 6 -68 -1z"/>
<path d="M9367 8853 c-15 -15 -5 -43 33 -90 46 -59 87 -80 119 -63 25 13 26
31 6 71 -30 57 -131 110 -158 82z"/>
<path d="M10005 10851 c-79 -20 -135 -66 -135 -111 0 -26 7 -33 58 -59 31 -16
72 -41 91 -55 50 -37 69 -34 76 12 10 58 13 62 38 62 37 0 53 46 34 93 -9 19
-24 40 -35 46 -28 15 -92 21 -127 12z"/>
<path d="M9575 10723 c-31 -8 -45 -23 -45 -49 0 -19 8 -24 56 -34 47 -10 65
-20 102 -58 l44 -46 19 23 c35 43 14 117 -41 146 -33 17 -104 27 -135 18z"/>
<path d="M9321 10495 c-12 -20 -28 -35 -39 -35 -56 0 -118 -108 -110 -192 4
-32 13 -57 28 -73 38 -41 63 -33 119 38 56 69 59 80 34 132 -9 19 -14 38 -10
41 4 4 25 2 48 -5 49 -15 65 -5 55 35 -8 32 -67 94 -89 94 -8 0 -24 -16 -36
-35z"/>
<path d="M9194 9932 c-21 -13 -54 -77 -54 -104 0 -17 7 -31 19 -38 42 -22 84
57 67 124 -7 27 -13 31 -32 18z"/>
<path d="M18375 10435 c-8 -14 -23 -37 -32 -52 -9 -16 -25 -34 -35 -42 -13 -8
-17 -19 -12 -30 4 -9 8 -86 9 -171 2 -166 9 -201 51 -262 51 -73 67 -40 39 77
-26 103 -30 258 -10 355 26 128 28 150 16 150 -6 0 -17 -11 -26 -25z"/>
<path d="M18394 9625 c-8 -21 15 -183 33 -225 13 -32 15 -33 25 -16 15 26 4
161 -18 214 -18 44 -31 52 -40 27z"/>
<path d="M18341 8573 c-5 -21 -12 -77 -15 -125 -3 -47 -25 -169 -47 -270 -23
-101 -48 -210 -55 -243 -8 -36 -11 -84 -8 -120 11 -109 -47 -227 -264 -535
-99 -140 -210 -380 -248 -537 -9 -37 -45 -124 -79 -193 -34 -69 -66 -136 -70
-150 -23 -76 -153 -306 -250 -445 -54 -77 -158 -271 -153 -286 2 -7 22 14 43
47 21 32 53 74 70 94 18 19 65 85 105 145 78 117 126 175 146 175 16 0 71 47
84 71 6 10 16 53 24 97 23 130 90 278 199 441 109 163 128 224 81 258 l-25 19
20 52 c24 61 75 144 182 297 148 212 262 472 305 695 18 97 18 158 -2 205 -13
31 -14 49 -5 104 11 70 15 141 13 204 -2 30 -6 37 -22 37 -14 0 -22 -10 -29
-37z"/>
<path d="M16575 4973 c-104 -119 -165 -201 -165 -224 0 -28 12 -24 63 21 60
53 138 152 171 217 51 103 29 98 -69 -14z"/>
<path d="M16650 4866 c-25 -13 -63 -46 -84 -72 -22 -27 -71 -76 -110 -109
-136 -117 -180 -161 -252 -258 -53 -71 -74 -107 -74 -128 0 -73 -119 -214
-220 -262 -38 -18 -90 -61 -170 -139 -63 -63 -128 -123 -145 -135 -16 -12 -27
-24 -23 -28 8 -8 228 113 228 126 0 5 13 15 28 23 15 8 33 26 39 39 7 14 38
42 70 63 32 22 126 106 209 189 150 148 152 151 183 235 37 97 53 121 171 245
95 100 210 236 199 235 -2 -1 -24 -11 -49 -24z"/>
<path d="M15216 3488 c-78 -80 -98 -96 -132 -101 -53 -9 -113 -61 -160 -140
-20 -34 -46 -72 -56 -84 -29 -31 -121 -61 -213 -67 -144 -10 -265 -95 -293
-204 -48 -186 -168 -306 -437 -438 -60 -29 -123 -65 -140 -79 l-30 -26 50 5
c122 12 422 179 654 364 51 41 132 100 180 132 105 70 320 227 378 276 50 41
103 109 200 254 143 213 142 254 -1 108z m-465 -480 c13 -21 -24 -68 -76 -100
-236 -142 -253 -147 -240 -81 18 96 81 162 173 183 31 7 62 14 67 16 18 6 69
-6 76 -18z"/>
<path d="M13385 2379 c-100 -18 -237 -103 -380 -234 -102 -94 -217 -155 -292
-155 -49 0 -170 -35 -248 -71 -35 -16 -73 -29 -86 -29 -12 0 -62 -16 -111 -35
-49 -20 -119 -42 -156 -51 -163 -36 -239 -56 -253 -65 -48 -31 104 -36 186 -6
171 63 187 67 251 67 60 0 77 5 154 45 48 24 147 62 221 83 173 50 212 71 362
191 171 137 322 231 371 231 7 0 20 6 30 13 26 19 4 26 -49 16z"/>
<path d="M13116 1900 c-198 -67 -236 -82 -236 -99 0 -10 12 -7 195 42 157 41
255 87 255 119 0 11 10 14 -214 -62z"/>
<path d="M8387 1911 c-79 -26 -136 -65 -153 -106 -40 -98 12 -332 85 -385 15
-9 44 -21 66 -24 129 -22 369 82 391 170 17 66 -30 83 -59 21 -33 -71 -150
-100 -218 -54 -29 19 -34 29 -34 62 l0 40 55 8 c42 6 61 14 82 37 29 32 44 35
97 20 43 -12 61 1 61 45 0 36 -18 56 -73 79 -20 8 -41 25 -46 38 -5 13 -19 32
-31 43 -31 28 -145 31 -223 6z"/>
<path d="M11850 1884 c-106 -28 -180 -58 -180 -73 0 -5 32 -1 73 11 39 11 114
31 165 43 52 12 99 28 105 34 19 19 -60 12 -163 -15z"/>
<path d="M10156 1634 c-9 -23 19 -62 50 -70 60 -15 294 23 294 47 0 5 -51 9
-112 9 -72 1 -127 6 -153 15 -52 19 -71 19 -79 -1z"/>
<path d="M9299 1540 c-14 -4 -38 -15 -53 -25 -40 -27 -18 -41 94 -60 52 -8
129 -28 170 -42 62 -22 92 -26 175 -26 101 1 212 15 261 34 56 21 7 32 -173
39 -172 6 -180 8 -238 37 -89 45 -177 61 -236 43z"/>
<path d="M11825 1529 c-121 -16 -170 -31 -170 -54 0 -18 6 -20 67 -17 86 3
212 41 216 65 4 19 -3 20 -113 6z"/>
<path d="M11025 1413 c-54 -19 -89 -25 -152 -25 -55 0 -88 -5 -100 -14 -17
-13 -17 -15 6 -34 13 -11 35 -20 50 -20 57 0 281 87 281 110 0 13 -3 13 -85
-17z"/>
<path d="M10000 1293 c-51 -8 -91 -25 -87 -36 5 -16 325 -21 347 -7 13 9 12
13 -9 30 -20 17 -37 20 -125 19 -55 -1 -112 -4 -126 -6z"/>
<path d="M6248 10114 c-46 -25 -31 -54 27 -54 33 0 75 -20 75 -36 0 -13 -30
-24 -130 -45 -103 -22 -256 -2 -407 55 -83 31 -167 31 -293 0 -114 -27 -117
-27 -250 -15 -228 20 -430 26 -430 12 0 -60 513 -98 710 -52 65 15 227 13 285
-3 28 -8 79 -26 115 -42 60 -25 76 -27 195 -27 141 0 215 15 291 59 44 26 83
29 164 14 58 -11 72 -4 63 31 -8 30 -78 65 -183 94 -106 28 -191 32 -232 9z"/>
<path d="M3050 9959 c-14 -6 -161 -14 -328 -18 -166 -5 -305 -11 -308 -14 -14
-13 7 -35 53 -57 43 -21 70 -24 286 -32 l238 -10 41 28 41 29 211 6 c116 3
254 3 306 -2 129 -11 460 -11 460 0 0 5 -48 12 -107 16 -60 3 -130 11 -158 16
-27 6 -131 14 -230 20 -99 5 -235 13 -303 19 -147 12 -169 12 -202 -1z"/>
<path d="M7234 8441 c-74 -50 -115 -91 -90 -91 21 0 113 59 144 93 38 41 9 40
-54 -2z"/>
<path d="M7005 8368 c-22 -18 -51 -43 -65 -56 -14 -13 -43 -33 -65 -44 -44
-23 -125 -86 -125 -98 0 -4 30 1 66 11 50 14 71 16 89 7 35 -16 71 2 140 69
45 44 55 59 50 77 -4 11 -9 31 -12 44 -7 31 -32 28 -78 -10z"/>
<path d="M4729 6962 c-24 -16 -75 -45 -114 -66 -74 -40 -103 -62 -93 -72 11
-11 49 7 129 62 44 29 93 60 109 69 17 9 30 20 30 25 0 16 -13 12 -61 -18z"/>
</g>
</svg>
